<?xml version="1.0" encoding="UTF-8" standalone="no"?>
<!-- Created with Inkscape (http://www.inkscape.org/) -->

<svg
   version="1.1"
   id="svg113"
   width="388"
   height="412.66666"
   viewBox="0 0 388 412.66666"
   sodipodi:docname="add.svg"
   inkscape:version="1.1.2 (0a00cf5339, 2022-02-04)"
   xmlns:inkscape="http://www.inkscape.org/namespaces/inkscape"
   xmlns:sodipodi="http://sodipodi.sourceforge.net/DTD/sodipodi-0.dtd"
   xmlns="http://www.w3.org/2000/svg"
   xmlns:svg="http://www.w3.org/2000/svg">
  <defs
     id="defs117" />
  <sodipodi:namedview
     id="namedview115"
     pagecolor="#505050"
     bordercolor="#eeeeee"
     borderopacity="1"
     inkscape:pageshadow="0"
     inkscape:pageopacity="0"
     inkscape:pagecheckerboard="0"
     showgrid="false"
     inkscape:zoom="1.9168013"
     inkscape:cx="194.07332"
     inkscape:cy="206.33333"
     inkscape:window-width="971"
     inkscape:window-height="999"
     inkscape:window-x="1935"
     inkscape:window-y="62"
     inkscape:window-maximized="1"
     inkscape:current-layer="g119" />
  <g
     inkscape:groupmode="layer"
     inkscape:label="Image"
     id="g119">
    <path
       style="fill:#000000;stroke-width:0.666667"
       d="M 14.280757,381.12933 C 10.49323,379.30717 8.4638693,377.09222 7.271374,373.47892 6.2525921,370.39198 6.7855533,354.34588 8.704428,330.33333 9.9690867,314.50754 10.056391,309.60801 9.708222,274 8.7330187,174.26363 8.58418,109.4488 9.3240433,106.70116 10.133787,103.694 13.861774,99.101752 16.616566,97.718005 c 1.706982,-0.857427 8.251786,-2.521313 19.716767,-5.012593 3.3,-0.717073 10.05,-2.233433 15,-3.369693 6.560941,-1.50604 11.981073,-2.246787 20,-2.733314 6.05,-0.367066 16.85,-1.143906 24,-1.7263 7.149997,-0.5824 18.436937,-1.19992 25.082077,-1.37226 10.58132,-0.274433 12.3898,-0.167326 14.55949,0.86226 5.04731,2.395107 7.49745,9.22626 5.17291,14.4224 -2.56039,5.723345 -5.85865,7.134765 -16.81448,7.195405 -4.21666,0.0233 -12.01666,0.48628 -17.33333,1.02877 -5.31667,0.54248 -15.913427,1.2972 -23.54836,1.67715 -14.367247,0.71499 -20.073478,1.4779 -33.118307,4.42786 -4.216666,0.95356 -9.916666,2.21812 -12.666666,2.81015 -5,1.0764 -5,1.0764 -4.946584,50.40761 0.02938,27.13217 0.289104,71.98121 0.577166,99.66455 0.45467,43.69468 0.382044,52.00398 -0.55064,62.99999 -0.590914,6.96667 -1.274212,16.83473 -1.518442,21.92902 -0.444054,9.26235 -0.444054,9.26235 8.830556,8.79913 5.101036,-0.25477 13.77461,-0.88484 19.27461,-1.40016 5.5,-0.51532 15.85,-1.25261 23,-1.63841 29.985437,-1.61799 37.566697,-2.14336 48.333337,-3.34942 14.85691,-1.66425 19.13987,-1.94294 41.33333,-2.6895 16.56841,-0.55735 31.98391,-1.8979 45.84796,-3.987 4.61497,-0.6954 28.26887,-2.55389 55.12409,-4.3311 22.10959,-1.46315 43.77402,-1.20211 54.86812,0.66112 1.84018,0.30906 1.84018,0.30906 1.46264,-11.84231 -0.20764,-6.68325 -0.13571,-21.35469 0.15984,-32.6032 0.50334,-19.15754 0.62434,-20.5683 1.91188,-22.29214 2.71263,-3.63185 4.69628,-4.58936 9.50769,-4.58936 5.32037,0 8.00965,1.54638 10.2423,5.88948 1.36331,2.652 1.41754,3.49846 1.20299,18.77719 -0.308,21.93354 -0.29682,33.72574 0.0466,49.09438 0.29258,13.0944 0.29258,13.0944 -1.74601,15.62354 -4.98746,6.1876 -7.54892,6.72797 -23.13202,4.87994 -15.56803,-1.84624 -30.49254,-2.27296 -45.93717,-1.31344 -28.25427,1.75535 -56.88428,4.10092 -69.22556,5.67145 -17.05608,2.17053 -27.09563,2.91973 -49.66666,3.70639 -10.26667,0.35781 -23.61667,1.23264 -29.66667,1.94407 -10.82389,1.27278 -20.96673,1.99991 -48,3.44105 -7.516667,0.40071 -18.016667,1.16299 -23.333333,1.69395 -5.316667,0.53096 -17.166667,1.12698 -26.333334,1.32449 -16.653966,0.35885 -16.669246,0.35788 -20.052576,-1.26982 z M 210.09622,330.63167 c -15.96872,-1.51229 -24.34275,-6.0948 -31.17799,-17.06147 -7.47052,-11.98597 -10.25156,-27.34492 -10.25156,-56.61673 0,-17.46463 0,-17.46463 -1.5,-17.93812 -0.825,-0.26042 -13.2,-0.72049 -27.5,-1.02238 -25.90306,-0.54685 -32.72898,-1.07436 -39.6382,-3.06327 -7.509437,-2.16168 -11.820797,-5.18773 -16.521963,-11.59637 -5.87508,-8.00893 -7.621734,-14.60651 -6.314374,-23.85113 1.62824,-11.51363 4.737914,-17.54805 15.147614,-29.39438 8.717053,-9.9201 12.111923,-12.5331 27.293063,-21.0073 17.81094,-9.94216 24.18235,-11.74719 41.46549,-11.74719 10.18675,0 10.18675,0 9.78747,-10.83333 -0.48962,-13.2841 0.42178,-23.55949 3.46726,-39.090628 2.61733,-13.34776 4.6092,-18.304706 9.43696,-23.484701 9.17018,-9.83925 20.13209,-14.553311 33.90328,-14.579762 10.33782,-0.01986 16.57584,2.352739 27.64612,10.515059 9.62404,7.095978 13.42109,13.365477 17.0243,28.109711 4.30262,17.606201 5.0816,22.852581 5.45944,36.768831 0.3549,13.07184 0.3549,13.07184 7.61962,13.51307 3.99559,0.24268 11.68364,1.03081 17.08456,1.75141 5.40092,0.72061 15.36675,1.77167 22.14628,2.33571 13.64403,1.13515 17.56704,2.01861 24.06124,5.41858 5.55194,2.90666 10.06767,6.93388 20.36046,18.15791 C 370.80025,178.67917 374,185.72952 374,198.75629 c 0,6.61995 -0.98065,11.22804 -3.45685,16.24371 -2.27468,4.6075 -4.01833,6.68136 -9.55994,11.37039 -5.39461,4.56464 -8.4294,6.42091 -16.11418,9.85643 -10.84333,4.84756 -16.68064,6.21164 -30.20236,7.05774 -10.4647,0.65482 -35.38645,-0.13798 -40.546,-1.28982 -1.95031,-0.4354 -3.66996,-0.66768 -3.82146,-0.51618 -0.15149,0.1515 0.31774,2.34973 1.04276,4.88496 3.0996,10.83874 3.09817,26.26347 -0.003,37.4561 -2.8047,10.12109 -10.76698,26.57987 -15.56794,32.18037 -9.59802,11.19646 -26.10624,16.48483 -45.67434,14.63168 z m 22.25247,-25.35687 c 3.7584,-1.83811 5.12386,-2.958 7.11288,-5.83365 3.29706,-4.76679 9.04928,-18.5465 10.33571,-24.7597 1.6213,-7.83052 0.89649,-17.59947 -2.10327,-28.34812 -5.19428,-18.61195 -5.78952,-21.5028 -5.01774,-24.36901 0.92671,-3.44152 4.10002,-7.01041 7.11941,-8.0069 3.66947,-1.21104 11.26523,-0.27041 17.00654,2.10602 8.14815,3.37266 12.25881,4.01052 28.36833,4.40197 24.35061,0.59171 34.4109,-1.13685 45.5402,-7.82472 7.06815,-4.24741 9.12168,-6.21265 10.04068,-9.60894 1.07798,-3.98381 0.34427,-9.8583 -1.64849,-13.19868 -2.51768,-4.22027 -13.93837,-16.75652 -17.99667,-19.75456 -4.62385,-3.41584 -6.53448,-3.89343 -20.4396,-5.10919 C 304.25,164.4083 294.5,163.33952 289,162.59426 c -5.5,-0.74526 -14.5,-1.51774 -20,-1.71662 -7.45578,-0.26959 -10.69685,-0.6615 -12.73898,-1.54039 -2.84476,-1.22433 -5.75122,-4.45822 -6.59435,-7.33725 -0.26845,-0.91667 -1.19476,-2.61048 -2.05845,-3.76404 -2.39766,-3.2023 -2.90781,-6.7933 -2.92213,-20.5693 -0.0136,-13.09936 -0.67532,-18.40898 -4.1541,-33.333328 -2.24396,-9.626847 -3.75634,-12.43152 -8.64516,-16.032233 -7.33024,-5.39886 -8.82313,-5.97706 -15.22242,-5.895647 -4.73806,0.06027 -6.21589,0.359027 -9,1.81938 -7.18208,3.76724 -8.49799,5.774727 -10.58415,16.14672 -2.58184,12.836448 -3.27926,19.285218 -3.34843,30.961778 -0.0574,9.68582 0.11981,11.62299 1.48313,16.21463 2.57489,8.67221 0.54692,17.08236 -5.03105,20.86406 -1.67305,1.13428 -3.73719,1.29112 -21.51724,1.63488 C 149,160.42714 149,160.42714 143.33333,162.6574 c -5.71248,2.24829 -18.29252,8.97842 -23.57114,12.61021 -3.38706,2.33036 -12.89847,12.23678 -15.80526,16.46166 -2.9836,4.3365 -4.16153,8.32432 -3.8266,12.95468 0.64822,8.96163 4.29106,9.86165 43.203,10.67397 21.54762,0.44982 28.3788,0.81369 33.82778,1.80188 7.92531,1.43726 9.8329,2.5659 12.14606,7.18628 1.62867,3.25316 1.64379,3.45968 2.09597,28.63202 0.25051,13.94538 0.79195,27.42182 1.20321,29.94765 2.09444,12.86357 3.17145,15.83024 7.56257,20.83145 1.40535,1.6006 2.79889,2.34419 5.36479,2.86264 1.90646,0.3852 4.06629,0.83763 4.79962,1.00539 0.73334,0.16777 4.94025,0.21938 9.3487,0.11471 7.57988,-0.17998 8.26806,-0.31392 12.66666,-2.46514 z"
       id="path259" />
  </g>
</svg>
