<?xml version="1.0" encoding="UTF-8" standalone="no"?>
<!-- Created with Inkscape (http://www.inkscape.org/) -->

<svg
   version="1.1"
   id="svg74"
   width="514"
   height="454.66666"
   viewBox="0 0 514 454.66666"
   sodipodi:docname="edit.svg"
   inkscape:version="1.1.2 (0a00cf5339, 2022-02-04)"
   xmlns:inkscape="http://www.inkscape.org/namespaces/inkscape"
   xmlns:sodipodi="http://sodipodi.sourceforge.net/DTD/sodipodi-0.dtd"
   xmlns="http://www.w3.org/2000/svg"
   xmlns:svg="http://www.w3.org/2000/svg">
  <defs
     id="defs78" />
  <sodipodi:namedview
     id="namedview76"
     pagecolor="#505050"
     bordercolor="#eeeeee"
     borderopacity="1"
     inkscape:pageshadow="0"
     inkscape:pageopacity="0"
     inkscape:pagecheckerboard="0"
     showgrid="false"
     inkscape:zoom="1.7397361"
     inkscape:cx="256.93552"
     inkscape:cy="227.33333"
     inkscape:window-width="971"
     inkscape:window-height="999"
     inkscape:window-x="1935"
     inkscape:window-y="62"
     inkscape:window-maximized="1"
     inkscape:current-layer="g80" />
  <g
     inkscape:groupmode="layer"
     inkscape:label="Image"
     id="g80">
    <path
       style="fill:#000000;stroke-width:0.666667"
       d="m 71.130567,432.01953 c -7.129306,-2.78564 -11.832442,-8.93424 -13.232036,-17.29876 -0.342419,-2.04643 -0.885557,-27.42078 -1.206974,-56.38744 -0.6313,-56.89382 -1.526626,-80.22425 -4.784191,-124.66667 -1.246048,-16.99962 -2.129608,-34.22886 -2.170963,-42.33333 -0.06641,-13.01475 0.0027,-13.80225 1.448372,-16.50893 2.937169,-5.4991 9.755888,-8.60414 15.05459,-6.85542 5.339982,1.76236 8.883622,8.70751 7.218608,14.1477 -1.773633,5.79506 -1.561166,11.9408 2.208507,63.88332 2.209007,30.4379 3.123967,57.60518 3.659767,108.66666 0.30588,29.15 0.766006,53.66893 1.022506,54.48652 0.466374,1.48651 0.466374,1.48651 17.225474,1.16091 36.348983,-0.70622 40.545963,-0.93844 59.759103,-3.30666 39.37383,-4.85322 56.85238,-5.6741 120.81458,-5.6741 48.03901,0 48.03901,0 47.65678,-12.5 -0.21024,-6.875 -0.85377,-16.1 -1.43008,-20.5 -1.38748,-10.59309 -1.45096,-18.27396 -0.17148,-20.74822 3.68716,-7.13019 13.55946,-8.35451 18.6438,-2.31212 2.09742,2.49264 2.88884,5.23389 3.48195,12.06034 0.23893,2.75 0.86267,8.59104 1.3861,12.98009 0.52343,4.38905 0.95169,13.09001 0.95169,19.33545 0,9.35678 0.23467,12.17597 1.33333,16.01779 1.72909,6.04633 1.68353,7.36879 -0.39778,11.54544 -1.22623,2.46072 -2.54187,3.94903 -4.51097,5.10299 -2.77984,1.6291 -2.77984,1.6291 -67.43554,1.93718 -35.56064,0.16944 -68.55571,0.60428 -73.32238,0.96633 -13.80999,1.04891 -30.07403,2.71209 -47.66666,4.87445 -14.22511,1.74845 -19.73231,2.08167 -42.66667,2.5816 -37.968207,0.82764 -39.11966,0.81004 -42.869433,-0.65512 z M 200.65064,344.02076 c -8.96699,-3.08838 -20.33617,-4.63277 -41.98397,-5.7031 -4.58334,-0.22662 -11.63334,-0.84034 -15.66667,-1.36383 -6.60644,-0.85746 -7.91044,-0.84176 -13.15557,0.15839 -5.82223,1.1102 -5.82223,1.1102 -9.66666,-0.83798 -3.06262,-1.55198 -4.14948,-2.55235 -5.34444,-4.91914 -2.05684,-4.07386 -1.87787,-6.79066 0.8578,-13.02177 C 118.03266,313 118.03266,313 119.01269,296 c 0.53901,-9.35 1.43631,-24.2 1.99399,-33 0.55769,-8.8 1.12559,-20.51181 1.262,-26.02624 0.22758,-9.19947 0.40539,-10.40888 2.15634,-14.66666 1.5327,-3.72706 2.95808,-5.70019 7.24165,-10.02452 6.75519,-6.81947 25.70701,-22.57258 41.66314,-34.63118 6.7814,-5.12494 16.77346,-13.01354 22.2046,-17.53023 5.43112,-4.51669 14.73271,-11.74575 20.67018,-16.06459 5.93748,-4.31884 18.14541,-13.3742 27.12874,-20.12304 8.98334,-6.74884 21.67943,-15.71977 28.21355,-19.93541 14.65229,-9.453271 54.44651,-35.835544 60.78645,-40.299442 C 334.9,61.891521 339.25,58.14502 342,55.373131 c 2.78157,-2.803704 6.47896,-5.768404 8.33333,-6.681958 1.83334,-0.903188 5.58334,-3.02558 8.33334,-4.716425 5.15072,-3.166941 14.30282,-7.307409 19,-8.595725 4.39732,-1.206077 21.8474,-2.085079 28.24774,-1.422908 8.51234,0.880675 13.54673,2.351945 21.75226,6.356959 10.80931,5.275892 18.29268,10.588465 28,19.877694 6.83298,6.538691 9.36497,9.476384 11.96713,13.884644 1.81526,3.075194 4.60357,7.541253 6.19625,9.924587 3.74798,5.6086 5.38695,9.167066 8.90464,19.333331 2.88346,8.33334 2.88346,8.33334 3.12887,20.20076 0.30081,14.54674 -0.43384,19.60221 -3.62247,24.92782 -2.76147,4.61217 -8.42716,10.51887 -13.80776,14.39513 -2.14501,1.5453 -6.34501,4.70804 -9.33334,7.02834 -5.40813,4.19916 -15.72687,10.78128 -16.90172,10.78128 -0.33911,0 -3.59745,2.57491 -7.24075,5.72202 -6.50009,5.61481 -35.11862,27.47755 -46.29997,35.37023 -3.12168,2.20353 -10.77168,7.26107 -17,11.23897 -6.22832,3.9779 -17.62422,11.89064 -25.32422,17.58386 -16.67674,12.33046 -51.42192,35.70942 -67.54141,45.44656 -18.30105,11.05492 -32.45883,20.54073 -41.45859,27.77752 -9.26899,7.4533 -10.8751,9.01762 -12.60844,12.28047 -1.31673,2.47863 -4.709,5.08545 -7.35196,5.64968 -0.93844,0.20034 -2.75626,0.90429 -4.0396,1.56433 -3.73314,1.92001 -8.42587,2.18659 -12.68269,0.72046 z M 194,316.3747 c 0,-1.26058 0.46667,-4.30421 1.03705,-6.76362 1.58588,-6.8382 4.25046,-23.14589 3.87986,-23.74552 -0.18091,-0.29272 -4.52612,-0.53223 -9.65603,-0.53223 -10.10032,0 -11.52473,-0.36617 -14.68046,-3.77381 -2.43248,-2.62666 -3.36325,-5.98088 -2.85453,-10.28688 0.53222,-4.505 1.5369,-6.97986 4.00642,-9.86914 1.95084,-2.28244 7.68367,-15.30902 7.14562,-16.23684 -0.15948,-0.275 -1.26632,-0.5 -2.45966,-0.5 -1.19334,0 -5.60064,-0.47198 -9.79399,-1.04884 -4.19335,-0.57686 -11.58415,-1.25186 -16.42401,-1.5 -10.14945,-0.52036 -9.50172,-0.96528 -9.53404,6.54884 -0.0103,2.38334 -0.44284,10.48334 -0.9613,18 -0.51848,7.51667 -1.12633,17.41667 -1.35079,22 -0.40811,8.33334 -0.40811,8.33334 2.45007,9.71028 2.18805,1.05409 3.24947,2.1586 4.52699,4.71074 0.91784,1.8336 2.93315,4.81398 4.47845,6.62307 1.54531,1.80909 3.19531,3.81774 3.66667,4.46368 0.71949,0.98599 2.6221,1.28309 11.85701,1.85155 11.2489,0.69244 22.06285,1.81464 22.59274,2.34453 1.04006,1.04006 2.07393,0.0451 2.07393,-1.99581 z m 31.20497,-11.99048 c 7.84216,-6.17418 20.80018,-14.85231 35.4617,-23.74908 18.96642,-11.50903 54.21444,-35.06808 71.26509,-47.63211 7.8458,-5.7813 20.1458,-14.30601 27.33333,-18.94381 7.18754,-4.63778 17.11824,-11.3896 22.06824,-15.00404 C 393.33517,190.29158 412,176.02288 412,175.61144 c 0,-0.98748 -8.47721,-12.65146 -12.31522,-16.94478 -5.54197,-6.19942 -9.83378,-12.19014 -15.5222,-21.66666 -8.06179,-13.4304 -21.15044,-31.95851 -32.02442,-45.333335 -4.85637,-5.973253 -6.63713,-7.63018 -8.22375,-7.65184 -0.59708,-0.0081 -9.0777,5.381087 -18.84583,11.976094 -9.76813,6.595011 -21.87961,14.592531 -26.91441,17.772261 -16.83487,10.6321 -28.59204,18.76131 -44.93531,31.06944 C 244.29849,151.55055 233.4,159.64 229,162.80917 c -4.4,3.16917 -12.5,9.48461 -18,14.03433 -5.5,4.5497 -15.85,12.71467 -23,18.14437 -7.15,5.42969 -16.83639,13.05367 -21.52531,16.94215 -8.52532,7.06998 -8.52532,7.06998 0.33333,8.19193 4.87225,0.61708 13.05865,1.60246 18.19198,2.18973 10.71557,1.22592 15.62929,2.44107 19.1535,4.73663 3.1174,2.03057 5.17983,5.97331 5.17983,9.90224 0,2.78453 -2.98235,12.53705 -6.6164,21.63612 -0.78786,1.97267 -1.34647,3.64763 -1.24136,3.72214 0.1051,0.0745 3.4911,0.49626 7.52443,0.93725 8.13153,0.88906 11.22035,2.35322 14.15681,6.71063 1.79262,2.66008 2.01682,7.38017 0.5318,11.19648 -0.53794,1.38242 -1.72372,7.31349 -2.63507,13.18016 -0.91135,5.86667 -1.87182,11.71667 -2.13437,13 -0.39962,1.95327 -0.32333,2.21549 0.4684,1.60985 0.52017,-0.39791 3.138,-2.44944 5.8174,-4.55896 z M 437.33333,157.50207 c 3.71697,-2.16707 18.77768,-13.5458 22.17492,-16.75367 3.25686,-3.07533 3.81687,-5.33894 3.82136,-15.4463 0.003,-7.9699 -0.11977,-8.73214 -2.61372,-16.15559 -1.80692,-5.37844 -3.72654,-9.497625 -6.19903,-13.302111 -1.96987,-3.031087 -4.5684,-7.243694 -5.77451,-9.361347 -1.51196,-2.65466 -4.55633,-5.991293 -9.80381,-10.745 -10.58945,-9.593018 -22.21063,-16.505806 -30.80469,-18.323978 -4.94604,-1.046394 -18.91579,-0.911728 -24.32509,0.23449 -5.53129,1.172066 -12.63553,4.577928 -15.03122,7.206146 -0.97765,1.072543 -2.45803,2.607389 -3.28974,3.410776 -1.51221,1.460693 -1.51221,1.460693 6.68223,12.097606 13.36783,17.352307 21.37338,28.658268 28.2993,39.966088 6.95914,11.36209 12.66561,19.4627 17.14451,24.33748 1.516,1.65 4.24807,5.08242 6.07127,7.6276 1.82318,2.54518 4.11779,5.47116 5.09911,6.50218 2.01879,2.121 2.92688,1.98352 8.54911,-1.29437 z"
       id="path210" />
  </g>
</svg>
