<?xml version="1.0" encoding="UTF-8" standalone="no"?>
<!-- Created with Inkscape (http://www.inkscape.org/) -->

<svg
   version="1.1"
   id="svg71"
   width="611.33331"
   height="622.66669"
   viewBox="0 0 611.33331 622.66669"
   sodipodi:docname="export.svg"
   inkscape:version="1.1.2 (0a00cf5339, 2022-02-04)"
   xmlns:inkscape="http://www.inkscape.org/namespaces/inkscape"
   xmlns:sodipodi="http://sodipodi.sourceforge.net/DTD/sodipodi-0.dtd"
   xmlns="http://www.w3.org/2000/svg"
   xmlns:svg="http://www.w3.org/2000/svg">
  <defs
     id="defs75" />
  <sodipodi:namedview
     id="namedview73"
     pagecolor="#505050"
     bordercolor="#eeeeee"
     borderopacity="1"
     inkscape:pageshadow="0"
     inkscape:pageopacity="0"
     inkscape:pagecheckerboard="0"
     showgrid="false"
     inkscape:zoom="1.6719666"
     inkscape:cx="255.38788"
     inkscape:cy="296.35759"
     inkscape:window-width="971"
     inkscape:window-height="999"
     inkscape:window-x="1935"
     inkscape:window-y="62"
     inkscape:window-maximized="1"
     inkscape:current-layer="g77" />
  <g
     inkscape:groupmode="layer"
     inkscape:label="Image"
     id="g77">
    <path
       style="fill:#000000;stroke-width:0.666667"
       d="m 95.83061,558.63947 c -7.543447,-1.86798 -16.343026,-9.30573 -19.823873,-16.75593 -2.14694,-4.59517 -3.3048,-10.93034 -3.329446,-18.21685 -0.0087,-2.56667 -0.748134,-8.41667 -1.643234,-13 -1.649933,-8.44848 -2.220313,-14.8115 -4.063693,-45.33334 -0.564694,-9.35 -1.469117,-21.65 -2.009827,-27.33333 -0.54071,-5.68334 -1.264925,-20.23334 -1.609365,-32.33334 -0.940176,-33.02779 -1.240561,-38.31845 -3.368742,-59.33333 -2.363989,-23.3434 -3.617875,-38.56993 -4.995829,-60.66667 -0.571634,-9.16667 -1.763404,-25.51667 -2.64838,-36.33334 -2.337699,-28.5727 -2.5612,-104.42642 -0.338594,-114.91574 2.90948,-13.73095 9.325851,-21.06675 21.320304,-24.37539 4.611179,-1.27198 6.796373,-1.37554 29.025339,-1.37554 26.05519,0 30.38741,-0.33903 51.32139,-4.01629 13.55387,-2.38087 25.39855,-3.16262 31.26279,-2.06336 27.13641,5.08678 31.59299,41.60295 6.49904,53.25163 -2.7082,1.25716 -5.30512,1.7862 -10.74345,2.18864 -8.58486,0.63528 -9.92007,0.8165 -27.01838,3.66682 -16.30985,2.71888 -25.84277,3.63398 -37.88766,3.63695 -9.221,0.002 -9.221,0.002 -8.9415,32.83561 0.23648,27.78017 0.5477,36.11662 2.02213,54.16667 0.95845,11.73334 2.36656,30.18334 3.12913,41 1.47062,20.85996 1.73284,23.94511 4.30626,50.66667 2.03599,21.14092 2.25438,24.94109 3.04588,53 0.35166,12.46667 0.94734,26.56667 1.32372,31.33334 1.79058,22.67631 2.65475,35.12425 3.33231,48 0.80455,15.28872 1.69789,23.62816 2.63111,24.56138 0.84726,0.84726 19.78201,1.21205 38.279,0.51192 36.17352,-1.3692 36.95361,-0.8084 73.98551,-4.17841 33.0796,0.009 36.48562,-0.18369 58.40685,-0.22038 23.18817,-0.0388 19.21248,0.45235 38.36725,-0.0989 11,-0.31658 40.15897,-0.5756 64.79771,-0.5756 30.82175,0 45.02011,-0.22169 45.51061,-0.71061 0.50607,-0.50444 0.42103,-4.75969 -0.29311,-14.66667 -1.4548,-20.18156 -2.18443,-26.42939 -4.00441,-34.28939 -2.324,-10.03671 -3.84549,-24.93202 -3.00136,-29.3831 4.20416,-22.16847 31.39654,-30.83567 47.38046,-15.10189 5.25673,5.17447 7.13718,9.65539 8.69664,20.72318 0.73066,5.18566 1.89936,11.82848 2.59709,14.76181 1.67044,7.0227 2.99448,19.00504 4.30945,39 0.5908,8.98334 1.54755,18.52301 2.12612,21.19927 0.74566,3.4491 0.9233,6.36084 0.61008,10 -0.24302,2.82374 -0.6843,8.13983 -0.9806,11.81354 -1.41925,17.59616 -14.32456,28.9872 -32.84064,28.9872 -4.37337,0 -7.35001,0.45132 -12.0266,1.82348 -6.21477,1.82348 -6.21477,1.82348 -53.54811,1.88502 -123.92749,-6.96806 -152.99163,0.66476 -309.16937,6.26428 z M 216.37072,437.47074 c 0,0 2.9539,1.45388 0,0 -3.17207,-1.56126 -7.27824,-2.96803 -10.03027,-3.43635 -12.12157,-2.06277 -20.82066,-10.95227 -23.2469,-23.75573 -1.59614,-8.42296 -2.64099,-24.47803 -2.25198,-34.60353 1.00409,-26.13522 15.88144,-65.83661 35.23358,-94.02357 18.52929,-26.98845 54.13214,-62.17475 75.76941,-74.88291 11.49964,-6.75406 36.9007,-17.27522 50.46786,-20.90388 1.66149,-0.44438 3.0209,-1.03598 3.0209,-1.31467 0,-1.14005 -18.5375,-25.84286 -22.16251,-29.53344 -9.96037,-10.14055 -13.46617,-28.38343 -7.75568,-40.35774 3.69364,-7.7452 11.57968,-14.42182 18.58486,-15.734643 1.28333,-0.240513 17.99265,-2.012697 3.32599,-0.114384 -3.02613,0.391674 0,0 16.69576,0.461206 15.19286,0.41969 39.25636,7.367831 39.25636,7.367831 3.04656,2.66507 -5.59613,-0.8879 2.24224,1.35337 14.05822,4.01976 20.85896,4.76271 49.14631,5.36904 25.93347,0.55588 50.23568,3.11192 60.23868,6.33574 10.91368,3.51733 15.80982,10.63188 16.53361,21.91008 0.4671,7.27844 -5.44749,29.90429 -5.44749,29.90429 -0.81878,0.91666 1.2175,-0.94478 0.8056,0.15522 -3.2373,8.64546 -12.74565,59.44574 -18.09321,96.66667 -2.70134,18.80226 -3.58942,22.48879 -6.74518,28 -6.5559,11.44922 -15.30799,17.99203 -25.09838,18.76279 -7.12488,0.56091 -20.64171,-1.29173 -24.80066,-3.39923 -5.4333,-2.75326 -12.00954,-9.80236 -14.3428,-15.3741 -1.07241,-2.56087 -4.11268,-9.30612 -6.75615,-14.98946 -2.64348,-5.68333 -5.48179,-12.40723 -6.30735,-14.942 -1.3185,-4.04823 -2.03725,-5.10164 -5.91052,-8.66252 -2.42522,-2.22963 -5.91176,-5.58112 -7.74787,-7.44776 -3.26571,-3.32001 -3.44277,-3.40266 -8.1327,-3.79584 -2.63686,-0.22106 -5.36,-0.70469 -6.0514,-1.07472 -2.48507,-1.32996 -22.72515,7.85647 -34.10564,15.47964 -19.24168,12.88896 -63.8641,53.61814 -74.62039,68.10987 -5.16096,6.95325 -18.25522,33.3276 -20.00484,40.2936 -1.65558,6.5915 -2.0144,28.37383 -0.63776,38.71363 1.74932,13.13882 -5.3138,21.03226 -16.72007,26.79013 -3.21557,1.62321 -24.35141,2.67337 -24.35141,2.67337 z"
       id="path251"
       sodipodi:nodetypes="sssssssssssssssssscssssssssscssssssssssssssssccscssssssssssssssssssssssssssssssssssssc" />
  </g>
</svg>
