<?xml version="1.0" encoding="UTF-8" standalone="no"?>
<!-- Created with Inkscape (http://www.inkscape.org/) -->

<svg
   version="1.1"
   id="svg2982"
   width="515.33331"
   height="494.66666"
   viewBox="0 0 515.33331 494.66666"
   sodipodi:docname="import.svg"
   inkscape:version="1.1.2 (0a00cf5339, 2022-02-04)"
   xmlns:inkscape="http://www.inkscape.org/namespaces/inkscape"
   xmlns:sodipodi="http://sodipodi.sourceforge.net/DTD/sodipodi-0.dtd"
   xmlns="http://www.w3.org/2000/svg"
   xmlns:svg="http://www.w3.org/2000/svg">
  <defs
     id="defs2986" />
  <sodipodi:namedview
     id="namedview2984"
     pagecolor="#505050"
     bordercolor="#eeeeee"
     borderopacity="1"
     inkscape:pageshadow="0"
     inkscape:pageopacity="0"
     inkscape:pagecheckerboard="0"
     showgrid="false"
     inkscape:zoom="1.7628033"
     inkscape:cx="257.82798"
     inkscape:cy="202.23471"
     inkscape:window-width="1886"
     inkscape:window-height="999"
     inkscape:window-x="1935"
     inkscape:window-y="62"
     inkscape:window-maximized="1"
     inkscape:current-layer="g2988" />
  <g
     inkscape:groupmode="layer"
     inkscape:label="Image"
     id="g2988">
    <path
       style="fill:#000000;stroke-width:0.666667"
       d="m 109.6314,429.78253 c -5.42646,-1.80272 -11.041384,-5.35378 -14.680484,-9.28444 -6.283993,-6.78746 -9.120233,-14.0519 -9.955173,-25.4981 -0.24072,-3.3 -0.86202,-10.8 -1.380673,-16.66666 -0.615007,-6.95667 -0.943934,-19.77306 -0.9457,-36.84855 -0.002,-21.99944 0.22108,-28.28276 1.3982,-39.33333 1.927506,-18.09501 1.936506,-37.69153 0.0232,-50.48479 C 83.32305,246.53333 81.952856,236.78333 81.045903,230 c -0.906953,-6.78334 -2.546887,-18.18334 -3.6443,-25.33334 -2.82766,-18.42324 -3.28452,-23.68398 -4.110526,-47.33333 -0.753594,-21.57579 -0.226954,-38.83698 1.423786,-46.66666 2.024467,-9.6023 8.123,-16.881818 18.210066,-21.736471 7.02222,-3.37962 10.978411,-4.263533 19.082501,-4.263533 3.204,0 9.53806,-0.632774 14.07568,-1.406167 13.72082,-2.33858 22.36287,-0.878007 27.96761,4.726733 4.99509,4.995093 6.26513,7.966347 6.27461,14.679438 0.007,5.05322 -0.20778,6.05628 -1.98524,9.2658 -2.18464,3.94472 -7.08143,8.06223 -11.12608,9.35547 -1.34896,0.43132 -5.24896,0.73574 -8.66667,0.6765 -3.41771,-0.0593 -9.06401,0.37332 -12.54735,0.96125 -3.48333,0.58792 -7.87874,1.07015 -9.76756,1.07163 -3.43424,0.003 -3.43424,0.003 -3.90002,7.50268 -0.25619,4.125 -0.12423,16.72933 0.29324,28.00962 0.60884,16.45175 1.15449,23.17873 2.75783,34 1.09935,7.41971 2.74752,18.89038 3.66261,25.49038 0.91509,6.6 2.55132,18.34973 3.63605,26.11052 1.75117,12.52881 1.9753,16.00372 1.99944,31 0.0198,12.29756 -0.27245,18.9739 -1.07492,24.55614 -1.67449,11.64844 -2.09809,60.80622 -0.66589,77.27723 0.58257,6.69994 1.05922,12.45344 1.05922,12.78557 0,0.33457 4.57864,0.60387 10.26709,0.60387 10.23991,0 11.1582,-0.11083 32.85261,-3.96488 4.09916,-0.72822 12.94916,-1.63878 19.66666,-2.02347 6.7175,-0.38468 17.60713,-1.00767 24.19917,-1.38441 6.59205,-0.37674 18.59205,-1.55601 26.66667,-2.6206 14.4321,-1.90278 23.51011,-2.6533 48.68113,-4.02464 6.96667,-0.37955 19.26667,-1.55677 27.33333,-2.61604 26.00381,-3.4147 44.99383,-4.93894 72.75467,-5.83969 10.38468,-0.33696 11.8463,-0.24152 16.10348,1.05157 2.57519,0.78219 2.82305,-1.54331 3.22447,-1.54331 1.00352,0 3.1017,-0.73268 1.96712,-6.15761 -0.52265,-2.49897 -1.72181,-10.7249 -2.66481,-18.27984 -0.94299,-7.55494 -2.30136,-17.15494 -3.01859,-21.33333 -2.2809,-13.28797 -3.30029,-22.55756 -4.04625,-36.79378 -0.39954,-7.62484 -1.33154,-18.12484 -2.07112,-23.33333 -1.81169,-12.75896 -2.87082,-55.80221 -1.48934,-60.52754 2.69097,-9.20445 13.12895,-15.4581 22.33429,-13.38101 5.01226,1.13096 8.3753,3.21754 11.63768,7.22053 4.53248,5.56141 4.9318,7.89712 4.95586,28.98732 0.0135,11.80063 0.36528,21.05238 0.99749,26.23073 1.29309,10.59156 2.75313,27.35796 3.59935,41.33333 0.37743,6.23333 1.42462,15.41569 2.32708,20.40524 0.90247,4.98955 2.26782,14.43955 3.03411,21 0.76629,6.56045 2.02255,15.07809 2.79168,18.92809 1.93149,9.66828 2.40995,25.36545 0.9614,31.5412 -1.74173,7.42567 -4.9994,14.67564 -12.82706,16.47096 l -17.14465,3.93223 c -4.67498,1.07223 -24.74555,2.98218 -27.12183,2.30344 -3.63673,-1.0388 -0.69342,0.69666 -6.30503,1.15128 -3.66667,0.29706 -13.11667,0.85771 -21,1.24588 -14.68867,0.72328 -31.9042,2.44958 -46.66666,4.67956 -8.99043,1.35807 -20.47388,2.27646 -42,3.35895 -14.63382,0.73589 -17.22407,0.98516 -37.46305,3.60519 -7.30763,0.946 -21.94078,2.15016 -33,2.71556 -22.74743,1.16296 -27.14939,1.63045 -41.48403,4.40562 -9.75202,1.88798 -11.58718,2.02887 -30.05292,2.30718 -15.34239,0.23124 -20.26076,0.0991 -22.36859,-0.60118 z m 87.03526,-116.74674 c -1.28334,-0.51389 -3.01338,-0.95718 -3.84455,-0.98507 -1.56775,-0.0526 -5.64892,-3.87705 -10.19192,-9.55076 -1.92104,-2.39916 -3.25955,-5.38848 -5.52246,-12.33333 -4.25074,-13.04551 -4.74498,-14.90388 -8.09114,-30.42351 -2.812,-13.04218 -7.2221,-29.75132 -11.72122,-44.40979 -3.8269,-12.46836 -5.6337,-27.28077 -4.57541,-37.50991 0.66595,-6.4369 1.85156,-9.54979 5.64579,-14.82342 6.52328,-9.06676 10.42738,-11.15491 20.95946,-11.2104 8.68879,-0.0458 9.15228,0.1275 28.90846,10.80852 8.20822,4.4377 15.18855,8.06212 15.51185,8.05428 0.32329,-0.008 2.076,-2.58134 3.8949,-5.71886 4.95868,-8.55346 13.33406,-18.63854 25.99422,-31.3005 12.56099,-12.56277 16.79089,-16.10171 32.99667,-27.60663 18.27739,-12.975598 32.39628,-21.855871 44.00747,-27.679098 13.45597,-6.748426 17.29291,-8.200393 63.48579,-24.024187 12.65544,-4.335237 36.41891,-10.325058 40.93483,-10.318033 3.79729,0.0059 10.59568,1.925585 13.75253,3.883337 1.20342,0.74632 3.14506,2.351736 4.31474,3.567591 2.3321,2.42416 7.08646,11.57062 7.85746,15.11624 0.26778,1.231412 1.38083,4.149292 2.47346,6.484172 1.71274,3.660054 1.99255,5.051534 2.02983,10.094407 0.11139,15.065926 -5.85066,21.757291 -22.14275,24.851411 -13.3114,2.52805 -41.95384,10.58136 -52.67802,14.81133 -9.71689,3.83266 -39.69697,18.57333 -53,26.05915 -3.3,1.85696 -10.8,6.57183 -16.66666,10.47749 -5.86667,3.90565 -16.51667,10.78987 -23.66667,15.29826 -7.15,4.5084 -15.81554,10.48183 -19.25675,13.2743 -3.44121,2.79247 -6.71931,5.44912 -7.28466,5.90366 -0.56536,0.45454 -0.89982,0.95019 -0.74326,1.10144 1.18633,1.14598 20.28533,11.94998 25.68464,14.52938 3.70332,1.76918 7.27482,3.81505 7.93666,4.54638 0.66184,0.73133 1.76967,1.32969 2.46183,1.32969 0.69216,0 2.82066,1.14783 4.73001,2.55074 1.90934,1.40291 6.10582,4.15497 9.32551,6.11571 5.14578,3.13369 15.29342,11.48274 16.62125,13.67527 0.26137,0.43159 1.07711,3.45626 1.81273,6.72149 1.33749,5.93679 1.33749,5.93679 -0.34745,9.41604 -3.3894,6.9988 -12.85273,13.50999 -26.98954,18.56998 -2.72304,0.97466 -5.25097,1.99818 -5.61764,2.27451 -0.36666,0.27632 -1.74337,0.69606 -3.05935,0.93274 -2.34435,0.42165 -27.97165,13.06551 -29.94065,14.77196 -1.53782,1.33277 -8.4971,4.74085 -13.49968,6.61103 -2.47482,0.92519 -5.02482,1.98522 -5.66666,2.35562 -2.97682,1.71788 -10.5399,4.65392 -17.83365,6.92314 -4.4,1.36893 -11.3,3.5885 -15.33334,4.9324 -6.2921,2.0965 -8.32723,2.46776 -14.33333,2.61481 -4.80755,0.11771 -7.73081,-0.12127 -9.33333,-0.76298 z"
       id="path3149"
       sodipodi:nodetypes="cssscsssssssssscsscscssssssssssssssssssssssssssssssssssssssssssssscsssssssssscsssssssssssssssssscssssssssssssssssss" />
  </g>
</svg>
