<?xml version="1.0" encoding="UTF-8" standalone="no"?>
<!-- Created with Inkscape (http://www.inkscape.org/) -->

<svg
   version="1.1"
   id="svg3784"
   width="738.66669"
   height="655.33331"
   viewBox="0 0 738.66669 655.33331"
   sodipodi:docname="multi_date.svg"
   inkscape:version="1.1.2 (0a00cf5339, 2022-02-04)"
   xmlns:inkscape="http://www.inkscape.org/namespaces/inkscape"
   xmlns:sodipodi="http://sodipodi.sourceforge.net/DTD/sodipodi-0.dtd"
   xmlns="http://www.w3.org/2000/svg"
   xmlns:svg="http://www.w3.org/2000/svg">
  <defs
     id="defs3788" />
  <sodipodi:namedview
     id="namedview3786"
     pagecolor="#505050"
     bordercolor="#eeeeee"
     borderopacity="1"
     inkscape:pageshadow="0"
     inkscape:pageopacity="0"
     inkscape:pagecheckerboard="0"
     showgrid="false"
     inkscape:zoom="1.0729879"
     inkscape:cx="369.52885"
     inkscape:cy="358.34513"
     inkscape:window-width="1886"
     inkscape:window-height="999"
     inkscape:window-x="1935"
     inkscape:window-y="62"
     inkscape:window-maximized="1"
     inkscape:current-layer="g3790" />
  <g
     inkscape:groupmode="layer"
     inkscape:label="Image"
     id="g3790">
    <path
       style="fill:#000000;stroke-width:0.666667"
       d="m 61.549452,601.70699 c -8.551415,-2.67387 -14.375213,-11.44368 -13.247051,-19.94817 1.12047,-8.44652 6.633075,-14.0997 17.030934,-17.46524 3.370507,-1.09095 9.024467,-1.22639 70.000005,-1.67685 82.04157,-0.6061 94.67733,-1.13426 191,-7.98374 105.67854,-7.51476 154.15488,-9.29845 252.73193,-9.29928 63.98415,-5.4e-4 107.06262,1.59772 116.61929,4.32672 12.66813,3.61748 16.77973,21.16414 7.20333,30.74057 -5.11627,5.11627 -9.2742,6.06409 -21.88787,4.98949 -20.35859,-1.73442 -39.65467,-2.10402 -108.66667,-2.08138 -64.94896,0.0213 -113.3448,0.6623 -127.66667,1.69092 -2.75,0.19751 -17.15,0.95698 -32,1.68772 -14.85,0.73074 -50.25,2.96832 -78.66667,4.9724 -104.9841,7.404 -123.60744,8.18311 -205.33334,8.59018 -46.507301,0.23164 -53.400908,0.39582 -56.272621,1.34015 -3.872587,1.27346 -7.035807,1.30744 -10.844597,0.11651 z M 190.33334,526.59711 c -5.86667,-0.29639 -26.11667,-0.83021 -45,-1.18626 -37.25732,-0.70251 -39.63532,-0.92408 -51.824724,-4.82869 -14.704814,-4.71037 -23.69002,-10.73941 -30.001559,-20.13095 -3.958139,-5.88969 -5.065883,-9.16251 -6.470786,-19.11789 -0.543312,-3.85 -2.353164,-13.75 -4.021893,-22 -6.80909,-33.66333 -8.233757,-45.47064 -9.360893,-77.58092 -0.555097,-15.81383 -1.288388,-35.80241 -1.629536,-44.41908 -0.446271,-11.27182 -0.402771,-17.53681 0.155068,-22.33333 0.654458,-5.62729 1.359075,-102.62506 1.104168,-152 -0.09673,-18.73639 4.234551,-28.37503 16.468178,-36.64757 2.153418,-1.45618 5.102202,-3.63794 6.552852,-4.84836 4.557314,-3.80262 7.315314,-4.27979 28.029121,-4.84936 10.266664,-0.2823 27.816664,-0.99566 39.000004,-1.58522 23.82962,-1.25626 76.84802,-3.75229 79.5,-3.74275 1.83333,0.007 1.83333,0.007 1.83333,-16.301727 0,-19.624939 0.4468,-21.529039 6.30888,-26.886652 8.14969,-7.44836 20.80961,-6.345808 27.47475,2.392773 3.21339,4.213033 3.54192,6.350473 3.54599,23.070406 0.004,15.2682 0.004,15.2682 12.17039,14.73499 6.69166,-0.29327 48.16666,-0.71396 92.16666,-0.93487 C 436.33335,107 436.33335,107 436.48363,99.999996 c 0.48602,-22.637992 2.62913,-41.189382 5.33202,-46.155475 5.83168,-10.714721 20.02742,-13.033463 28.91243,-4.722577 5.95514,5.570334 7.03018,10.928378 5.12527,25.54472 -0.59733,4.583333 -1.28487,13.55474 -1.52786,19.936459 -0.4418,11.603127 -0.4418,11.603127 5.4497,11.164757 23.32759,-1.73574 100.9553,-0.92928 115.42722,1.19914 26.457,3.89109 48.2542,13.86008 57.9786,26.5166 3.5986,4.68366 11.07853,18.66842 13.80148,25.80383 2.82266,7.39657 4.10833,13.73975 5.025,24.79145 1.46566,17.67108 4.33773,37.08576 5.85233,39.56064 0.21527,0.35175 0.59953,6.65175 0.85393,14 0.5456,15.75929 1.74674,33.48098 2.71294,40.02712 0.37886,2.56666 0.81753,13.36666 0.97486,24 0.5012,33.87697 0.75767,41.18172 1.68494,47.99999 1.86687,13.7273 0.51386,109.05401 -1.79087,126.17485 -3.31527,24.62767 -14.74873,37.80544 -35.96227,41.44869 -2.2,0.37783 -9.85,0.98743 -17,1.35467 -7.15,0.36723 -17.95,0.96261 -24,1.32306 -6.05,0.36045 -20.75,0.96157 -32.66667,1.33583 -11.91666,0.37425 -35.31666,1.12875 -52,1.67667 -16.68333,0.54792 -53.28333,1.32733 -81.33333,1.73203 -28.05,0.4047 -63.3,1.0419 -78.33334,1.41598 -34.33859,0.85448 -156.39572,1.18968 -170.66667,0.46868 z m 140.34472,-37.25877 c 10.91087,-0.69939 61.40193,-1.6926 135.98862,-2.67502 24.75,-0.326 51.9,-0.9006 60.33334,-1.27689 8.43333,-0.37629 26.25017,-0.99666 39.59297,-1.37859 26.71552,-0.76471 41.8206,-1.53536 59.27372,-3.02408 6.34334,-0.54108 12.13716,-0.98378 12.87514,-0.98378 3.31597,0 7.45092,-14.1516 7.20734,-24.66666 -0.0807,-3.48334 0.20066,-9.93334 0.62524,-14.33334 0.43494,-4.50744 0.70579,-16.44036 0.6204,-27.33333 -0.0834,-10.63333 0.20702,-23.83333 0.64526,-29.33333 0.58117,-7.29355 0.61652,-13.51838 0.1306,-23 -0.36642,-7.15 -0.94767,-31.9 -1.29166,-55 -0.63114,-42.38297 -0.86922,-46.15308 -3.32177,-52.60378 -0.72901,-1.91744 -0.72901,-1.91744 -5.54313,-1.46485 -2.64776,0.24893 -12.03538,0.74033 -20.86137,1.09203 -8.82599,0.35168 -23.07599,1.24666 -31.66667,1.98884 -38.84019,3.35554 -49.47877,3.56257 -185.95274,3.61878 -93.4611,0.0385 -131.86423,0.27806 -143.33334,0.89412 -104.01084,5.58688 -126.91341,6.96852 -152.00001,9.16968 -6.049997,0.53084 -13.549997,0.96666 -16.666664,0.9685 -5.666667,0.003 -5.666667,0.003 -5.813067,1.83668 -0.08052,1.00834 -0.425906,10.23334 -0.76754,20.5 -0.341626,10.26667 -0.822426,21.21667 -1.068453,24.33334 -0.329353,4.17223 -0.07469,8.39181 0.965647,15.99999 1.483706,10.85074 1.551453,12.61782 2.70902,70.66667 0.470393,23.58871 0.985233,36.21103 1.645126,40.33333 0.52826,3.3 1.287414,8.55 1.687007,11.66667 1.151733,8.98304 4.360687,18.22449 7.95328,22.90457 2.624867,3.41943 3.647367,4.19581 7.368394,5.59476 9.12209,3.42952 10.81912,3.57927 48.32059,4.26387 19.43333,0.35475 39.98333,0.87449 45.66667,1.15497 15.69196,0.77442 122.87339,0.84353 134.67805,0.0869 z m -101.40875,-8.10287 c -1.35163,0.20134 -3.29504,-1.47264 -4.39222,-2.47475 -2.29822,-2.0991 -2.24538,-1.78748 -3.91522,-23.09407 -0.60346,-7.7 -1.36675,-14.50528 -1.6962,-15.12284 -0.9059,-1.69814 -0.71787,-6.38157 0.33766,-8.41027 2.53022,-4.86301 7.09411,-6.96191 14.66022,-6.74212 7.22078,0.20975 29.24712,-1.23839 31.42388,-2.066 4.14069,-1.57428 10.00293,0.48258 12.8552,4.51047 1.82891,2.58273 4.79106,23.31628 4.79087,33.53357 -1.5e-4,7.38334 -0.0817,7.83136 -1.96575,10.80224 -3.37342,5.31933 -4.41963,5.58361 -24.30138,6.13877 -14.86414,0.41505 -17.60092,0.65355 -19.66667,1.71389 -3.27131,1.67913 0,0 -8.13039,1.21111 z m 35.28423,-22.23346 c 0.45825,-0.45825 -1.18434,-15.22741 -1.75669,-15.79508 -0.52445,-0.52016 -19.52236,0.43745 -22.21624,1.11983 -1.92512,0.48764 -1.89842,0.12055 -0.84421,11.60944 0.39177,4.26955 0.39177,4.26955 12.43896,3.83318 6.62595,-0.24001 12.19614,-0.58533 12.37818,-0.76737 z m -115.56962,1.56109 c -5.97527,-5.24636 -6.56441,-11.69224 -1.63724,-17.9133 2.9641,-3.74248 5.72216,-4.82238 10.09771,-3.9537 5.2267,1.03764 6.30142,1.63118 8.53392,4.71306 4.6755,6.45434 1.61039,15.0275 -6.4918,18.15766 -4.54645,1.75646 -7.70244,1.45484 -10.50259,-1.00372 z m 264.80529,-53.52899 c -2.71333,-0.9677 -4.85154,-2.61542 -5.8746,-4.52702 -0.65008,-1.2147 -1.49377,-18.54998 -1.38741,-28.5071 0.0333,-3.11667 0.0708,-7.76152 0.0834,-10.3219 0.0288,-5.86258 0.82509,-7.77198 4.22425,-10.12955 2.71332,-1.88189 2.71332,-1.88189 22.1059,-2.2319 10.66592,-0.19251 20.67358,-0.16415 22.23926,0.063 5.10452,0.74059 8.77856,5.79177 8.76197,12.04621 -0.005,1.96578 0.60571,8.82373 1.3576,15.2399 1.70875,14.58134 1.70339,16.21854 -0.065,19.87159 -2.12765,4.39513 -5.86734,5.92178 -11.85459,4.83939 -5.15784,-0.93244 -28.48637,3.5303 -32.62515,3.57766 l -6.96563,0.0797 z m 26.2108,-21.96242 c 5.36807,-0.59871 6.99689,-1.00892 6.98664,-1.75955 -0.007,-0.53835 -0.26419,-3.75382 -0.57077,-7.14549 -0.55741,-6.16666 -0.55741,-6.16666 -10.00171,-6.16666 -9.44428,0 -9.44428,0 -10.6298,2.20137 -1.00725,1.87034 -1.11518,3.13313 -0.71777,8.39759 0.46775,6.19622 0.46775,6.19622 4.20059,5.72485 2.05305,-0.25926 6.88282,-0.82271 10.73282,-1.25211 z m -194.7056,14.29614 c -3.46708,-1.05204 -4.59423,-2.143 -7.3248,-7.08957 -3.0492,-5.52379 -3.24421,-8.60387 -0.89998,-14.2144 3.1745,-7.59764 11.94406,-10.45348 17.59704,-5.73054 1.53605,1.28333 3.18336,2.33333 3.66068,2.33333 0.47733,0 2.82338,0.63549 2.93693,2.35654 l 0.73573,11.15092 c 0.1022,1.54901 -1.33334,2.84767 -1.33334,3.28763 0,0.43995 -0.78348,1.93049 -1.74108,3.3123 -2.92136,4.21551 -8.58627,6.12463 -13.63118,4.59379 z m 86.03893,-5.33363 c -4.77704,-2.53905 -5.66666,-4.1654 -5.66666,-10.35937 0,-6.00536 1.21072,-8.45109 5.92308,-11.96504 4.32981,-3.22868 14.27225,-0.97205 18.15696,4.12107 3.76873,4.94105 2.84958,13.59341 -1.84159,17.33579 -2.6014,2.07527 -2.95901,2.16543 -8.47721,2.1372 -4.29322,-0.0219 -6.3558,-0.34547 -8.09458,-1.26965 z M 151,393.46339 c -6.06647,-3.9008 -8.12002,-11.13168 -5.06911,-17.84914 4.16432,-9.16893 18.51901,-8.77541 22.98218,0.63004 2.4431,5.14843 0.57168,13.5345 -3.71748,16.65858 -2.70978,1.97371 -11.46045,2.31924 -14.19559,0.56052 z m 381.30577,-6.04984 c -9.74752,-4.42769 -10.9445,-18.05147 -2.06187,-23.46783 4.97198,-3.03177 15.05036,-0.82696 18.25519,3.99361 7.77767,11.69884 -3.48703,25.24588 -16.19332,19.47422 z M 231.07954,334.01006 c -5.08555,-1.61012 -7.07953,-5.61091 -7.07953,-14.20457 0,-3.43053 -0.46464,-9.34477 -1.03252,-13.14276 -0.80821,-5.40527 -0.88062,-7.88441 -0.33334,-11.41179 0.38456,-2.4785 0.69919,-5.5855 0.69919,-6.90447 0,-1.86924 0.57732,-3.01727 2.61781,-5.20563 2.61781,-2.80752 2.61781,-2.80752 17.83334,-3.22422 8.36853,-0.22919 16.91457,-0.64244 18.99119,-0.91834 4.92714,-0.65463 8.02988,-0.0229 10.62869,2.16378 3.36805,2.83402 4.02157,5.33988 4.64999,17.82982 0.31385,6.23779 0.87075,13.59144 1.23756,16.34144 1.59026,11.9224 0.63667,15.03531 -5.47414,17.86982 -2.62513,1.21767 -3.52421,1.26363 -13.15111,0.67232 -9.2917,-0.57072 -17.36168,-0.42886 -25,0.43948 -1.46666,0.16673 -3.53087,0.0295 -4.58713,-0.30488 z m 29.37493,-20.57107 c -0.20837,-1.04188 -0.59114,-4.97645 -0.85059,-8.74349 -0.47173,-6.84916 -0.47173,-6.84916 -3.46418,-6.439 -1.64585,0.22558 -5.68935,0.41016 -8.98555,0.41016 -5.99309,0 -5.99309,0 -5.54554,4.83333 1.12596,12.15964 0.33825,11.09537 8.20306,11.08315 3.84058,-0.006 7.1541,0.16039 7.36338,0.36967 0.20928,0.20928 1.11801,0.38051 2.0194,0.38051 1.44512,0 1.5941,-0.22397 1.26002,-1.89433 z m 265.28176,17.86871 c -2.83668,0.12028 -5.62825,-3.81289 -6.40338,-6.60314 -0.3623,-1.30418 -0.66041,-10.4259 -0.66245,-20.27048 -0.004,-20.08476 0.2062,-21.19062 4.59906,-24.1766 1.31848,-0.8962 3.38319,-2.34826 4.58826,-3.2268 3.38331,-2.46652 7.2513,-2.8989 23.77247,-2.65732 15.29684,0.22366 15.29684,0.22366 17.94063,2.09182 2.92963,2.07013 5.10378,5.67431 5.19622,8.61402 0.0332,1.05644 -0.1043,9.94434 -0.30561,19.75089 -0.49949,24.33224 -0.10123,23.83656 -19.15197,23.83656 -11.48748,0 -17.2072,2.11671 -23.55266,2.38577 z m 29.35617,-21.56684 c 0.0508,-0.0408 0.30896,-3.7492 0.57367,-8.24087 0.48129,-8.16667 0.48129,-8.16667 -8.92572,-8.16667 -9.407,0 -9.407,0 -9.407,8.64491 0,8.6449 0,8.6449 8.83333,8.24087 4.85834,-0.22222 8.87491,-0.43742 8.92572,-0.47824 z m -400.75906,12.59112 c -9.52157,-3.3664 -10.7012,-18.17856 -1.94759,-24.4551 5.44941,-3.90736 11.97714,-3.2237 17.58379,1.84156 3.86137,3.48852 4.69713,5.42155 4.69713,10.86396 0,5.70821 -1.36146,7.6615 -7.46652,10.71224 -4.5725,2.2849 -8.45328,2.59778 -12.86681,1.03734 z m 183.15944,-5.67884 c -1.92897,-0.2801 -4.28204,-1.01695 -5.22902,-1.63744 -4.22982,-2.77148 -6.07825,-13.32038 -3.26375,-18.62599 5.06526,-9.54851 23.64481,-4.83434 23.66227,6.0038 0.008,4.98379 -5.84436,14.27315 -8.99223,14.27315 -0.49188,0 -1.29386,0.11154 -1.78218,0.24787 -0.48833,0.13633 -2.46611,0.0187 -4.39509,-0.26139 z m 98.01956,-2.95662 c -10.78317,-5.02037 -8.99621,-21.94056 2.50925,-23.75933 9.12278,-1.44212 16.44008,2.60149 17.3353,9.57965 0.60308,4.70102 -0.27214,7.39091 -3.57415,10.9847 -4.74198,5.16099 -9.88039,6.17001 -16.2704,3.19498 z M 95.000003,232.02134 c 23.657637,-2.04504 46.531737,-3.42805 157.333337,-9.51266 11.26354,-0.61853 48.59946,-0.85018 140.66667,-0.87275 134.05288,-0.0329 150.53565,-0.35097 189.75477,-3.66191 8.66512,-0.73153 23.26617,-1.61757 32.44679,-1.96898 9.18062,-0.35142 17.92832,-0.83663 19.43932,-1.07825 2.74729,-0.43931 2.74729,-0.43931 2.38654,-3.34972 -0.87838,-7.08654 -1.08885,-9.26433 -2.02547,-20.95778 -1.09343,-13.65117 -1.71579,-16.09872 -6.52957,-25.6788 -3.99748,-7.9555 -5.71478,-9.87512 -11.3963,-12.73888 -9.34988,-4.7128 -20.44722,-7.49002 -35.4094,-8.8616 -8.13009,-0.74527 -83.15736,-0.92049 -98.26331,-0.22948 -9.59665,0.43899 -9.59665,0.43899 -9.15037,8.16423 0.24546,4.24888 0.88426,9.52523 1.41957,11.72523 0.5353,2.2 0.97796,5.8161 0.98369,8.03578 0.0422,16.34538 -21.10632,23.96563 -32.21662,11.60832 -4.72807,-5.25876 -7.75278,-17.86301 -7.7675,-32.3679 -0.005,-5.39048 -0.005,-5.39048 -49.50547,-5.16528 -78.27638,0.35614 -127.17911,0.83938 -131.33334,1.29783 -3.83333,0.42303 -3.83333,0.42303 -3.81869,9.17381 0.012,7.16904 0.24486,9.2579 1.28832,11.55639 2.9899,6.58599 2.32304,13.03997 -1.96627,19.02993 -6.77646,9.46322 -20.02123,10.32306 -28.49445,1.84983 -6.18486,-6.18485 -8.14671,-13.13441 -8.164,-28.9197 -0.0116,-10.56766 -0.0116,-10.56766 -4.51158,-10.17087 -2.475,0.21822 -11.4,0.70049 -19.83333,1.0717 -35.16571,1.54786 -60.68134,2.74366 -71.33334,3.34306 -6.23333,0.35076 -15.90833,0.6421 -21.499997,0.64742 -8.375547,0.008 -10.166667,0.17794 -10.166667,0.96476 0,0.52529 -0.525,1.14056 -1.166667,1.36728 -3.20328,1.13177 -4.492893,4.27827 -4.638246,11.31674 -0.07603,3.68183 -0.477167,9.24424 -0.891407,12.3609 -0.47926,3.60583 -0.616987,11.12183 -0.378707,20.66667 0.205954,8.25 0.382087,18.825 0.391407,23.5 0.01933,9.69076 -0.92304,9.17495 14.350287,7.85468 z"
       id="path3848"
       sodipodi:nodetypes="sssssssssssssssssssssssssssssscssscssssssssssssssssssssssssssssssssssssssssssssscssssssssssssssssssssssssssssssssssssssssssssscsssscsscsssssssssssssssssssssssssssssssscssssssssssssscssssssssssscssssssssssssssssssssssssssssssssssssssssssssssssscsssssssssssscsssss" />
  </g>
</svg>
