<?xml version="1.0" encoding="UTF-8" standalone="no"?>
<!-- Created with Inkscape (http://www.inkscape.org/) -->

<svg
   version="1.1"
   id="svg5877"
   width="743.33331"
   height="618"
   viewBox="0 0 743.33331 618"
   sodipodi:docname="range_date.svg"
   inkscape:version="1.1.2 (0a00cf5339, 2022-02-04)"
   xmlns:inkscape="http://www.inkscape.org/namespaces/inkscape"
   xmlns:sodipodi="http://sodipodi.sourceforge.net/DTD/sodipodi-0.dtd"
   xmlns="http://www.w3.org/2000/svg"
   xmlns:svg="http://www.w3.org/2000/svg">
  <defs
     id="defs5881" />
  <sodipodi:namedview
     id="namedview5879"
     pagecolor="#505050"
     bordercolor="#eeeeee"
     borderopacity="1"
     inkscape:pageshadow="0"
     inkscape:pageopacity="0"
     inkscape:pagecheckerboard="0"
     showgrid="false"
     inkscape:zoom="1.4110032"
     inkscape:cx="371.72133"
     inkscape:cy="309.35436"
     inkscape:window-width="1886"
     inkscape:window-height="999"
     inkscape:window-x="1935"
     inkscape:window-y="62"
     inkscape:window-maximized="1"
     inkscape:current-layer="g5883" />
  <g
     inkscape:groupmode="layer"
     inkscape:label="Image"
     id="g5883">
    <path
       style="fill:#000000;stroke-width:0.666667"
       d="m 58.895829,567.99391 c -8.80066,-1.80949 -15.54013,-9.48054 -15.555984,-17.70624 -0.01122,-5.82154 1.682375,-10.06352 5.56993,-13.95107 3.68257,-3.68257 7.159159,-5.23385 13.423556,-5.98967 1.833334,-0.2212 10.383333,-1.42258 19,-2.66973 36.663269,-5.30654 95.865169,-11.65733 133.333329,-14.30311 20.93899,-1.47858 64.94979,-2.86552 127.66666,-4.02321 39.23464,-0.72423 41.71318,-0.78685 113,-2.85469 41.36152,-1.19979 64.17724,-1.46326 128,-1.47811 92.99933,-0.0217 95.35666,0.10245 102.87793,5.41579 2.16046,1.52626 3.5646,3.30142 5.13586,6.49308 1.9932,4.04877 2.13767,4.77892 1.8456,9.329 -0.37333,5.81804 -2.2618,9.606 -6.67013,13.37937 -4.7948,4.10415 -8.11733,4.67151 -21.11609,3.60583 -19.14412,-1.5695 -142.74311,-1.20936 -204.07317,0.59462 -49.71909,1.46246 -80.03154,2.20445 -143.66666,3.51668 -35.63455,0.73482 -78.33047,2.18473 -98.66667,3.3506 -38.61156,2.21361 -111.08023,10.40327 -155.666659,17.59185 -0.916666,0.14779 -2.913542,0.0123 -4.437502,-0.30099 z M 216.66666,474.65529 c -19.61667,-0.68556 -49.76667,-1.36846 -67,-1.51756 -28.96727,-0.25061 -31.77101,-0.3765 -37.12942,-1.66722 C 99.63957,468.36375 91.140564,463.92165 83.666664,456.38098 72.525051,445.13983 69.826171,437.29725 63.920053,399 c -2.159051,-14 -2.159051,-14 -2.596526,-52.33333 -0.47481,-41.60469 -1.695526,-63.17714 -5.092808,-90 C 54.49975,243 54.49975,243 55.257926,214 c 0.98451,-37.65718 1.014337,-42.56846 0.427151,-70.33333 -0.468909,-22.17216 -0.424723,-23.64175 0.887883,-29.53079 2.671049,-11.98371 8.560628,-23.384433 14.185144,-27.458807 5.310927,-3.84722 5.517327,-3.86722 49.241896,-4.771526 22.18333,-0.458794 52.83705,-0.931607 68.11938,-1.050687 27.78606,-0.21652 27.78606,-0.21652 28,-14.386527 0.21395,-14.170006 0.21395,-14.170006 2.45495,-18.718635 3.46237,-7.027694 8.72692,-10.272229 16.81918,-10.365646 7.41256,-0.08557 13.1562,3.500314 17.00394,10.615948 1.12935,2.088511 1.26213,3.883474 1.26547,17.107292 0.002,8.125675 0.20793,14.979868 0.45749,15.231535 0.24957,0.251666 8.19957,0.727873 17.66667,1.058233 9.4671,0.330367 29.06291,1.19938 43.54624,1.931153 54.04197,2.73046 88.32853,4.001574 108,4.003914 13,0.0013 13,0.0013 12.79771,-19.498627 -0.2023,-19.500167 -0.2023,-19.500167 2.33333,-24.481216 2.09395,-4.113415 3.10715,-5.332725 5.81668,-7 2.94166,-1.81011 3.83814,-2.018951 8.66667,-2.018951 7.43942,0 12.56088,1.662393 16.10898,5.228876 3.7075,3.726703 4.17309,6.736089 4.45765,28.812164 0.12469,9.673907 0.38265,17.744854 0.57324,17.93544 0.19059,0.190587 12.32384,0.0136 26.96279,-0.393266 30.5672,-0.8496 61.93128,-0.413074 72.61628,1.01068 8.83169,1.1768 17.81602,3.098546 23.59276,5.04648 15.4312,5.203453 30.56311,16.883953 35.69485,27.553283 3.23063,6.71674 5.50107,13.46776 7.08149,21.0563 1.40182,6.731 1.48396,7.55503 4.99228,50.08338 3.31815,40.22318 4.144,48.28658 6.10666,59.62382 1.73858,10.04284 1.73858,10.04284 0.93817,44.22393 -0.44023,18.7996 -0.62848,34.45927 -0.41835,34.79928 0.53177,0.86041 -1.50636,61.48065 -2.34927,69.87457 -1.91569,19.07698 -6.80082,35.98856 -13.46911,46.62798 -3.53637,5.64237 -10.69558,12.10845 -17.08946,15.43491 -6.16868,3.2093 -17.15368,6.99879 -23.74669,8.19188 -5.67897,1.02768 -40.76494,0.94928 -84,-0.1877 -30.99264,-0.81504 -60.29513,-0.28445 -96.66666,1.75035 -9.53333,0.53335 -30.53333,1.27915 -46.66666,1.65734 -16.13334,0.3782 -35.48334,1.15174 -43,1.71898 -21.49384,1.62204 -66.17177,1.73508 -108,0.27328 z m 88.80523,-33.64946 c 9.79287,-0.5455 22.54287,-1.2784 28.33333,-1.62866 5.79046,-0.35027 19.8281,-0.81792 31.19477,-1.03924 11.36666,-0.22132 33.11666,-1.04003 48.33333,-1.81935 29.7561,-1.52395 67.45721,-1.84466 139.33333,-1.18525 39.68829,0.36412 39.08828,0.40889 48.066,-3.58692 5.91315,-2.63183 7.72959,-5.51214 10.88764,-17.26442 3.80224,-14.14959 4.76236,-29.69126 5.73384,-92.81532 0.34422,-22.36667 0.81285,-43.96667 1.04139,-48 0.35358,-6.23998 0.10735,-9.36191 -1.65153,-20.93931 -1.13688,-7.48328 -2.20374,-13.74265 -2.3708,-13.90971 -0.16706,-0.16706 -3.99438,-1.03479 -8.50514,-1.92829 -7.59163,-1.50376 -10.4319,-1.66711 -38.2014,-2.19703 -28.61785,-0.5461 -52.42276,-0.26654 -109.66666,1.28793 -38.62914,1.04898 -89.4408,0.78883 -132.33333,-0.67751 -41.02914,-1.40264 -170.90304,-3.03578 -186.33333,-2.3431 -4.95,0.22222 -13.8,0.83841 -19.66667,1.36934 -5.86666,0.53092 -15.05668,0.97409 -20.422243,0.98482 -8.797713,0.0176 -9.786166,0.13649 -10.067106,1.21082 -0.171347,0.65522 0.236753,6.13022 0.90688,12.16667 4.036426,36.35973 5.356179,58.35686 5.958179,99.3087 0.299154,20.35 0.734507,38.2 0.967454,39.66667 0.232946,1.46666 1.166,7.61666 2.073446,13.66666 1.97368,13.15863 4.45497,23.90869 6.45485,27.96532 1.15818,2.34928 2.29636,3.418 5.47871,5.14432 7.11539,3.85986 10.97333,4.28559 38.98317,4.30183 13.74999,0.008 45.39999,0.70269 70.33333,1.54381 56.16463,1.89472 62.97109,1.95206 85.13856,0.71722 z M 163.66666,411.40828 c -5.39282,-1.39824 -8.54373,-4.29985 -9.70571,-8.93778 -1.02075,-4.07423 -0.40292,-8.5992 1.65316,-12.10764 2.17503,-3.7114 4.26926,-4.69619 9.98681,-4.69619 9.09062,0 14.05831,4.39522 14.79381,13.089 0.28055,3.31622 0.0944,4.7512 -0.85117,6.56231 -2.34423,4.48994 -10.29149,7.53847 -15.8769,6.0903 z m 78.5167,-0.0556 c -3.67704,-0.87363 -5.22365,-2.3723 -6.74003,-6.53111 -3.8087,-10.44572 0.12503,-17.23144 10.89156,-18.78807 4.26766,-0.61702 4.91482,-0.54743 7.59624,0.81679 1.61212,0.8202 3.54152,2.30883 4.28756,3.30806 1.67355,2.24154 2.57144,8.98852 1.64883,12.38968 -1.95715,7.2149 -9.19919,10.8206 -17.68416,8.80465 z m 73.16799,-1.81098 c -6.53353,-3.40995 -9.4126,-13.42533 -5.55273,-19.31623 2.46787,-3.76645 9.26242,-5.26076 16.41024,-3.60909 4.34795,1.0047 6.14258,2.31147 7.75839,5.6493 4.06799,8.40335 -2.11377,17.33454 -12.58567,18.18331 -2.74462,0.22245 -4.31966,-0.0145 -6.03023,-0.90729 z m 84.6166,-2.37733 c -3.48306,-2.34723 -4.66121,-4.9652 -4.76748,-10.59379 -0.0995,-5.26891 0.76766,-7.77739 3.56951,-10.32596 5.26023,-4.78471 12.64409,-4.83091 17.05548,-0.10672 3.04017,3.25573 4.47887,12.06963 2.56738,15.72851 -1.26277,2.41714 -4.30383,5.2225 -6.60292,6.09115 -3.38879,1.28037 -9.33725,0.88127 -11.82197,-0.79319 z m 84.86381,-1.75091 c -3.93646,-1.35989 -5.83322,-2.83789 -7.31211,-5.69775 -2.07848,-4.01934 0.70543,-12.8761 5.24901,-16.69928 1.96457,-1.65306 2.51395,-1.78714 5.86611,-1.43158 7.80827,0.82822 8.75413,1.15748 11.85195,4.12572 3.00671,2.88093 3.00671,2.88093 2.73475,7.152 -0.70421,11.05928 -8.09875,16.10602 -18.38971,12.55089 z M 241.65272,357.46572 c -4.80627,-1.66192 -7.28882,-3.66737 -9.65128,-7.79652 -2.07602,-3.62851 -2.07602,-3.62851 -5.53873,-3.29023 -6.38052,0.62332 -56.85333,1.13506 -62.8319,0.63705 -5.54848,-0.46219 -6.04546,-0.63067 -8.19196,-2.77717 -2.28513,-2.28512 -2.28513,-2.28512 -1.81644,-8.09532 0.51839,-6.4263 2.04877,-10.04245 5.25325,-12.41291 1.82511,-1.3501 2.82228,-1.39945 36.99999,-1.83137 19.31839,-0.24413 35.76677,-0.47134 36.55196,-0.5049 1.0155,-0.0434 1.73266,-0.8234 2.48434,-2.70206 1.23599,-3.08904 3.27664,-4.61234 6.85086,-5.11405 1.41378,-0.19845 3.74124,-0.80061 5.17213,-1.33812 5.43625,-2.04215 13.16399,-0.85472 18.06505,2.77583 3.96418,2.93653 9.52523,8.76034 10.83366,11.34556 6.00426,11.86327 0.25703,26.66144 -12.0321,30.98072 -5.03342,1.76911 -17.19362,1.8369 -22.14883,0.12349 z m 19.56247,-15.71123 c 1.15043,-1.15042 1.72906,-2.6065 1.95015,-4.90739 0.30902,-3.21605 0.25933,-3.32033 -2.92549,-6.13992 -5.11934,-4.53226 -5.89666,-4.93532 -7.69515,-3.99013 -0.84959,0.4465 -2.49063,1.63313 -3.64677,2.63696 -1.15614,1.00383 -2.42528,1.93484 -2.82033,2.0689 -0.9661,0.32786 -2.20746,7.1245 -1.71326,9.38036 0.50419,2.3014 4.02609,3.25311 10.59203,2.86223 3.80379,-0.22645 4.91292,-0.5651 6.25882,-1.91101 z m 60.32391,3.65161 c -5.0582,-2.36397 -7.28503,-9.7225 -4.76886,-15.75867 0.60696,-1.45608 1.47422,-3.63658 1.92723,-4.84554 1.5196,-4.05536 4.4917,-4.72268 12.81205,-2.87664 4.24105,0.94096 5.42974,1.64702 7.63004,4.53209 2.044,2.68013 2.31564,5.66735 0.96126,10.57093 -1.97494,7.15026 -11.749,11.56179 -18.56172,8.37783 z m 86.12755,-2.11156 c -5.1693,-1.51257 -8.14579,-7.05114 -7.4482,-13.85943 0.41961,-4.09532 2.24302,-7.14608 5.67518,-9.49523 3.44403,-2.35725 9.94322,-2.28323 14.10717,0.16069 4.26575,2.50366 5.45332,4.07562 6.08991,8.06106 1.12753,7.05903 -1.86306,11.69342 -9.39182,14.55412 -3.6113,1.37218 -5.83398,1.51462 -9.03224,0.57879 z m 82,-0.28886 c -0.36667,-0.12231 -1.46855,-0.39854 -2.44862,-0.61384 -7.29431,-1.60239 -11.26413,-13.97907 -6.88214,-21.45638 1.96884,-3.35957 4.30407,-4.78857 8.49615,-5.19909 4.59804,-0.45026 11.04159,3.02522 13.2857,7.16598 1.22264,2.25596 1.87978,9.26668 1.1308,12.06411 -1.37138,5.12215 -8.92444,9.59287 -13.58189,8.03922 z M 327.94696,302.70005 c -18.05684,-3.29437 -22.98418,-24.48121 -9.10618,-39.15516 2.5174,-2.66178 4.20144,-3.80274 6.71405,-4.54891 5.89845,-1.75165 15.51327,-0.8911 20.84416,1.8656 1.96041,1.01377 5.14956,4.19633 7.93529,7.91887 1.33238,1.78046 1.33238,1.78046 24.33237,1.89091 12.65,0.0607 53,-0.007 89.66667,-0.14937 52.65969,-0.20522 67.03297,-0.0834 68.4101,0.57973 1.82461,0.87863 3.92323,4.49265 3.92323,6.75616 0,0.72767 0.44815,2.18233 0.99589,3.23258 1.34148,2.57216 1.25562,4.82224 -0.28012,7.34081 -1.59742,2.61974 -3.89701,3.35035 -12.0491,3.82814 -10.18711,0.59706 -109.00271,0.64331 -141.12763,0.0661 -29.46095,-0.52938 -29.46095,-0.52938 -33.55019,3.86034 -2.91986,3.13441 -4.98045,4.70854 -7.20571,5.50457 -3.57389,1.27847 -14.83427,1.86142 -19.50283,1.00967 z M 343.074,287.27191 c 1.50157,-1.24619 0.7266,-6.72643 -1.43502,-10.14778 -2.10012,-3.32401 -2.20665,-3.37038 -7.2465,-3.15434 -5.41714,0.23223 -8.39249,3.26712 -8.39249,8.56044 0,3.30918 1.71069,4.92733 5.87451,5.55674 3.8158,0.57681 10.07091,0.12158 11.1995,-0.81506 z m -173.55361,9.38689 c -4.2026,-0.61379 -8.88993,-3.23423 -10.94319,-6.11777 -1.6291,-2.28786 -2.40783,-8.01455 -1.64371,-12.08764 0.64402,-3.43292 4.14006,-6.95476 9.0555,-9.12232 2.37729,-1.0483 4.47729,-1.66534 4.66667,-1.37119 0.18939,0.29415 2.22089,0.66777 4.51445,0.83026 7.21482,0.51115 11.97886,5.25427 12.68777,12.63209 0.64129,6.67399 -3.18561,12.16748 -10.14384,14.56147 -2.15753,0.7423 -4.10081,1.31221 -4.31841,1.26646 -0.2176,-0.0457 -1.96146,-0.31185 -3.87524,-0.59136 z m 76.11976,-4.035 c -2.76542,-0.80415 -7.23056,-4.74745 -8.56862,-7.5672 -1.41645,-2.98496 -1.52602,-9.58301 -0.20127,-12.12059 3.57037,-6.8391 13.17614,-10.18747 20.14453,-7.02196 3.29323,1.49601 6.87164,4.98464 8.08044,7.87772 2.04255,4.88854 0.50565,12.61867 -3.18306,16.00974 -3.48986,3.20828 -10.66494,4.45276 -16.27202,2.82229 z m 365.68328,-91.79047 c -0.005,-1.00833 -1.0396,-13.38333 -2.29813,-27.5 -3.26936,-36.67143 -3.80747,-38.22975 -15.68647,-45.427 -11.02503,-6.67983 -38.69408,-9.50198 -78.4282,-7.99942 -11.31752,0.42798 -24.43047,0.77401 -29.13987,0.76895 -8.56256,-0.009 -8.56256,-0.009 -8.09279,3.40639 0.25836,1.87858 1.05069,4.72887 1.76071,6.334 3.16384,7.15239 1.96889,14.75666 -3.18468,20.26625 -4.04415,4.32352 -8.07115,6.15823 -13.58735,6.19041 -8.0243,0.0468 -14.75931,-4.52118 -18.22614,-12.36181 -1.6231,-3.67084 -3.5446,-12.12213 -4.2155,-18.54093 -0.39329,-3.76278 -0.39329,-3.76278 -22.47582,-4.22856 -27.76321,-0.58562 -61.98083,-1.89501 -104.7492,-4.0084 -18.33333,-0.90594 -38.97699,-1.84979 -45.8748,-2.09744 -12.54146,-0.45027 -12.54146,-0.45027 -12.16003,3.45698 0.20979,2.14899 0.66241,7.20725 1.00581,11.24058 0.3434,4.03334 1.1237,8.52838 1.73401,9.98899 1.23587,2.95773 1.40262,9.37989 0.33641,12.9565 -1.5865,5.32199 -6.52848,10.1584 -12.30451,12.04167 -1.57861,0.51471 -4.27929,0.71149 -6.88929,0.50198 -3.56308,-0.286 -4.91389,-0.77232 -7.94628,-2.86081 -6.7413,-4.64291 -9.93604,-9.47025 -10.93215,-16.51873 -0.62115,-4.3953 -2.63583,-27.4401 -2.63583,-30.14978 0,-1.62648 0,-1.62648 -20.83334,-1.59581 -11.45833,0.0169 -25.63333,0.31983 -31.5,0.67325 -5.86666,0.35342 -24.65203,0.89743 -41.74527,1.2089 -17.09324,0.31147 -31.418243,0.77622 -31.833336,1.03276 -0.919567,0.56832 -0.951814,4.39228 -0.06929,8.21709 0.512454,2.22097 0.363494,4.12829 -0.69276,8.87026 -1.268033,5.69271 -1.301859,6.85539 -0.586866,20.17066 0.4173,7.77136 0.5999,21.25474 0.40578,29.96307 -0.352953,15.83334 -0.352953,15.83334 9.417733,15.82515 5.373879,-0.005 14.870679,-0.51411 21.104019,-1.13245 9.63914,-0.95622 18.4589,-1.10287 58.99999,-0.98106 54.02018,0.16231 104.72437,1.00258 147.66667,2.44714 38.3682,1.29069 115.74428,1.29368 152.66666,0.006 48.86822,-1.70442 116.86731,-1.18332 125.66666,0.96302 4.43929,1.08284 5.33435,0.89323 5.32345,-1.1277 z"
       id="path5905" />
  </g>
</svg>
