<?xml version="1.0" encoding="UTF-8" standalone="no"?>
<!-- Created with Inkscape (http://www.inkscape.org/) -->

<svg
   version="1.1"
   id="svg5675"
   width="962"
   height="807.33331"
   viewBox="0 0 962 807.33331"
   sodipodi:docname="range_time.svg"
   inkscape:version="1.1.2 (0a00cf5339, 2022-02-04)"
   xmlns:inkscape="http://www.inkscape.org/namespaces/inkscape"
   xmlns:sodipodi="http://sodipodi.sourceforge.net/DTD/sodipodi-0.dtd"
   xmlns="http://www.w3.org/2000/svg"
   xmlns:svg="http://www.w3.org/2000/svg">
  <defs
     id="defs5679" />
  <sodipodi:namedview
     id="namedview5677"
     pagecolor="#505050"
     bordercolor="#eeeeee"
     borderopacity="1"
     inkscape:pageshadow="0"
     inkscape:pageopacity="0"
     inkscape:pagecheckerboard="0"
     showgrid="false"
     inkscape:zoom="1.0800991"
     inkscape:cx="480.97438"
     inkscape:cy="404.12958"
     inkscape:window-width="1886"
     inkscape:window-height="999"
     inkscape:window-x="1935"
     inkscape:window-y="62"
     inkscape:window-maximized="1"
     inkscape:current-layer="g5681" />
  <g
     inkscape:groupmode="layer"
     inkscape:label="Image"
     id="g5681">
    <path
       style="fill:#000000;stroke-width:0.666667"
       d="m 149.66667,757.55498 c -15.14754,-1.25467 -24.05219,-3.80854 -27.51795,-7.89227 -6.01687,-7.08973 -6.03507,-7.16393 -6.3734,-25.99606 -0.20352,-11.32827 -0.62291,-17.75187 -1.43633,-22 -0.84058,-4.38994 -1.05405,-7.89667 -0.79549,-13.0678 0.35339,-7.06787 0.35339,-7.06787 -7.97338,-7.513 -14.948327,-0.79914 -25.75214,-2.94474 -36.443893,-7.23774 -16.491759,-6.62173 -30.593627,-18.55717 -36.467699,-30.86518 -3.198267,-6.70137 -7.067037,-18.57789 -8.572509,-26.31628 -3.404276,-17.49857 -4.105208,-33.6621 -4.741248,-109.33333 -0.291244,-34.65 -0.870477,-68.55 -1.287184,-75.33333 -0.416707,-6.78334 -1.238023,-19.68334 -1.825147,-28.66667 -1.502411,-22.98778 -1.847521,-47.29765 -0.889631,-62.66666 0.445632,-7.15 1.04866,-28.3 1.340062,-47 0.570437,-36.60622 0.90805,-40.45669 4.402258,-50.20762 2.138202,-5.96686 7.146582,-13.77771 11.850676,-18.48181 3.643534,-3.64353 9.206994,-6.86884 14.397528,-8.34667 1.65,-0.46979 3.75,-1.52871 4.666667,-2.35316 0.916667,-0.82445 3.166667,-2.2955 5,-3.269 2.96177,-1.57271 5.302619,-1.98917 21,-3.73614 9.716667,-1.08137 22.16667,-2.71258 27.66667,-3.62489 5.5,-0.91232 12.93453,-1.91574 16.52118,-2.22982 3.58666,-0.31408 6.67469,-0.72454 6.8623,-0.91215 0.1876,-0.18761 0.0467,-2.85307 -0.3131,-5.92325 -0.35981,-3.07019 -0.99049,-13.08216 -1.40151,-22.24882 -0.60601,-13.51519 -1.07233,-18.13048 -2.4662,-24.40805 -1.14879,-5.1738 -1.56921,-8.53928 -1.26759,-10.14705 0.96978,-5.16939 6.86498,-9.45044 12.32244,-8.94845 1.6917,0.1556 5.02581,-0.0869 7.40914,-0.53891 2.38334,-0.452 9.13334,-1.01434 15,-1.24963 5.86667,-0.2353 15.76667,-1.0025 22,-1.70488 22.8342,-2.57301 31.74242,-3.31762 51.33334,-4.29075 22.17482,-1.10148 57.92633,-1.52242 60,-0.70643 2.73579,1.07652 5.43862,3.60786 6.50775,6.09482 1.95969,4.55854 3.7864,15.76174 4.83587,29.6584 0.56382,7.46584 1.49929,17.17426 2.07882,21.57426 0.57954,4.4 1.20974,9.425 1.40045,11.16667 0.34675,3.16666 0.34675,3.16666 24.78549,3.16666 27.72807,0 24.92446,3.30386 23.33416,-27.49773 -0.52659,-10.19921 -0.51634,-14.43031 0.0391,-16.11313 0.9159,-2.77519 6.08264,-7.69865 8.17019,-7.78548 0.83319,-0.0347 5.26489,-0.11244 9.84823,-0.17285 27.658,-0.36454 87.20189,-2.83472 107.66666,-4.46657 25.57831,-2.03959 28.79017,-1.78295 32.47384,2.59485 3.54144,4.20876 3.96967,7.40804 4.16383,31.10758 0.15839,19.33333 0.15839,19.33333 4.42703,19.14921 34.5901,-1.49206 151.8331,-1.91001 230.26864,-0.82087 47.7126,0.66253 90.4974,2.55011 114.66666,5.05886 23.34227,2.4229 36.24187,6.44961 47,14.67139 4.71227,3.60127 6.45767,5.50312 10.60127,11.55128 4.20413,6.13662 6.76473,12.71804 8.97047,23.0568 3.91113,18.33249 4.327,24.20236 5.07753,71.66666 0.56113,35.48491 0.73487,39.29932 2.33827,51.33333 1.33153,9.99333 1.8758,17.93403 2.3532,34.33334 0.34153,11.73333 1.25966,28.83333 2.04026,37.99999 1.3372,15.70421 1.39834,19.55404 1.0588,66.66667 -0.3528,48.94504 -0.64146,57.91314 -2.71453,84.33333 -0.561,7.15 -1.33227,17.2 -1.71393,22.33333 -1.10627,14.88044 -4.22787,28.2249 -8.5584,36.58618 -5.73254,11.06821 -15.85534,18.10855 -30.3606,21.11555 -3.2492,0.67354 -6.0518,1.3688 -6.228,1.54507 -0.45614,0.45613 -0.25367,44.12567 0.22173,47.82873 0.8998,7.00834 -3.35567,14.44234 -9.87193,17.24554 -2.8346,1.2194 -4.47687,1.47013 -8.529,1.30226 -2.76014,-0.1144 -30.66847,-0.1386 -62.01847,-0.054 -47.38787,0.12814 -57.63453,0.31794 -60.76287,1.1256 -5.04233,1.30187 -7.6564,1.20514 -11.23713,-0.41573 -4.84107,-2.1914 -9.25147,-7.19153 -10.78187,-12.22353 -0.34393,-1.13074 -0.78053,-14.20587 -0.9702,-29.05587 -0.18973,-14.85 -0.46373,-27.375 -0.60886,-27.83333 -0.20874,-0.6592 -13.96547,-0.83334 -65.84596,-0.83334 -65.58206,0 -65.58206,0 -66.41528,2.781 -1.1203,3.73927 -7.38439,9.97887 -11.12184,11.0784 -2.01169,0.5918 -13.25106,0.80727 -42.11364,0.80727 -43.26711,0 -52.57561,0.42067 -74.80902,3.381 -16.66834,2.21933 -28.36311,2.86173 -72.33333,3.97313 -30.10705,0.76094 -33.20474,0.61987 -37.72573,-1.718 -3.41158,-1.7642 -6.29143,-4.781 -7.9555,-8.33386 -1.86532,-3.98254 2.07785,-3.77994 -30.77304,-1.5812 -16.90752,1.1316 -17.80591,1.25866 -18.15756,2.56806 -0.71817,2.67407 -0.3596,20.83594 0.60632,30.71087 0.53798,5.5 0.98431,13.9408 0.99183,18.75733 0.0137,8.7574 0.0137,8.7574 -2.65301,12.7508 -2.22405,3.33054 -3.46898,4.41674 -7.5,6.5438 -4.83331,2.5504 -4.83331,2.5504 -19.83331,3.06107 -8.25,0.28093 -18.15,0.80733 -22,1.1698 -3.85,0.36253 -10.37591,0.67213 -14.50201,0.68813 -4.12611,0.016 -12.67611,0.61527 -19,1.3318 -19.08782,2.1626 -29.26252,2.69707 -49.16466,2.58247 -10.45,-0.06 -20.2,-0.20874 -21.66666,-0.3302 z m 65.0677,-33.45867 c 6.4539,-0.77813 18.4539,-1.7086 26.66666,-2.06766 12.21644,-0.53407 31.76309,-1.95674 32.42401,-2.35994 0.0871,-0.0533 -0.28197,-4.42533 -0.82016,-9.716 -0.53819,-5.29066 -0.98447,-13.908 -0.99171,-19.1496 -0.0132,-9.5302 -0.0132,-9.5302 -2.17984,-9.17166 -1.19166,0.1972 -8.01666,0.8452 -15.16666,1.44006 -10.13554,0.8432 -21.51994,1.0732 -51.66667,1.04367 -21.26667,-0.0207 -42.41667,-0.23407 -47,-0.47393 -8.33333,-0.43607 -8.33333,-0.43607 -9.5,2.46833 -1.41165,3.51427 -1.44957,6.89073 -0.171,15.22373 0.53446,3.48334 1.17405,10.295 1.42131,15.137 0.36959,7.23787 0.63928,8.8602 1.51629,9.1212 0.5867,0.17467 12.91673,0.228 27.40007,0.1186 21.81306,-0.1648 28.3476,-0.4418 38.0677,-1.6138 z m 649.7451,-20.57406 c 0.0886,-0.28727 -0.058,-7.57227 -0.32587,-16.18894 -0.48693,-15.66666 -0.48693,-15.66666 -16.1536,-16.11673 -8.61667,-0.24753 -22.86667,-0.9212 -31.66667,-1.49693 -8.8,-0.5758 -24.175,-1.04827 -34.16666,-1.04994 -18.16667,0 -18.16667,0 -18.16667,18.06954 0,18.0726 0,18.0726 50.15927,17.68893 27.58753,-0.211 50.23166,-0.61867 50.3202,-0.90593 z m -434.8128,-46.90074 c 13.4566,-0.43996 25.14862,-1.19121 31.66666,-2.0347 30.81644,-3.98788 40.97142,-4.58593 77.87826,-4.58644 27.34228,-3.9e-4 27.54178,-0.0103 27.11704,-1.34852 -0.53864,-1.69712 -0.8038,-22.01655 -0.91112,-69.81853 -0.0842,-37.5 -0.0842,-37.5 -14.50786,-37.5 -15.21616,0 -54.40739,1.57211 -66.24298,2.65726 -6.41731,0.58838 -37.14454,2.2379 -74.66667,4.00831 -8.25,0.38926 -17.9591,0.89608 -21.57577,1.12627 -6.57578,0.41852 -6.57578,0.41852 -6.14662,4.81334 0.51853,5.30987 1.6872,65.38741 1.7077,87.78656 0.0147,16.05842 0.0147,16.05842 12.18136,15.82617 6.69166,-0.12773 21.76666,-0.54611 33.5,-0.92972 z m 17.50838,-7.66512 c -4.7236,-2.563 -5.06246,-11.30878 -0.5726,-14.77893 2.22727,-1.72142 5.87598,-2.27402 8.30733,-1.25814 5.01474,2.09529 7.54764,9.95761 4.46885,13.87166 -2.29389,2.9162 -8.71879,4.05624 -12.20358,2.16541 z m 0.18096,-20.76738 c -3.51749,-1.81005 -4.80729,-4.65501 -5.19526,-11.4594 -0.20832,-3.65379 -0.0341,-6.76022 0.46395,-8.26914 0.96767,-2.93207 4.16628,-5.77207 6.59312,-5.85395 1.76633,-0.0596 1.76406,-0.0654 -0.25455,-0.65206 -4.37896,-1.27265 -7.09024,-6.81629 -5.33625,-10.91084 0.48149,-1.124 1.83523,-2.94364 3.00831,-4.04364 2.13288,-2 2.13288,-2 16.10178,-1.89711 11.59516,0.0854 14.2472,0.28523 15.60661,1.17595 5.06879,3.3212 5.27079,10.89224 0.37932,14.21676 -1.4656,0.9961 -3.65859,1.20382 -14.67773,1.39024 -12.9547,0.21917 -12.9547,0.21917 -10.3054,1.4053 4.09386,1.83286 4.80556,3.47278 5.2675,12.1374 0.43874,8.22942 0.0497,9.77825 -3.00741,11.97256 -2.58757,1.85729 -5.9672,2.16536 -8.64399,0.78793 z m 42.16816,-31.59529 c -1.17838,-0.34063 -2.93798,-1.66225 -3.91021,-2.93692 -2.21867,-2.90882 -2.8776,-7.98966 -2.91802,-22.49994 -0.0293,-10.50979 -0.0293,-10.50979 2.16029,-12.89902 2.9525,-3.22172 7.03888,-3.79302 10.46739,-1.46338 3.32552,2.25966 3.98664,4.04988 4.01501,10.87219 0.0137,3.3 0.31372,9.714 0.66665,14.25333 0.77342,9.94758 0.18147,11.89186 -4.27774,14.05054 -3.10458,1.5029 -3.14588,1.50704 -6.20337,0.6232 z M 446.62773,564.6836 c -4.90277,-1.4372 -6.98226,-4.41001 -6.4414,-9.20852 0.24308,-2.15663 0.90026,-3.53604 2.3983,-5.03409 2.06347,-2.06347 2.06347,-2.06347 18.23942,-2.85905 18.05328,-0.88792 19.15296,-0.7247 21.46282,3.18558 2.3678,4.00837 1.22586,9.10706 -2.60132,11.61473 -1.57162,1.02976 -3.97956,1.26001 -26.35222,2.51978 -2.75,0.15485 -5.76752,0.0565 -6.7056,-0.21843 z M 256,640.40407 c 14.06903,-1.39905 31.07093,-2.73332 60.32288,-4.73398 13.56092,-0.92749 27.16087,-1.87887 30.22213,-2.11417 5.56591,-0.42783 5.56591,-0.42783 5.09222,-28.49188 -0.26054,-15.43523 -0.56421,-28.16777 -0.67483,-28.29453 -0.29479,-0.33781 -37.07011,1.16843 -47.9624,1.96443 -5.13333,0.37515 -16.08333,1.57184 -24.33333,2.6593 -39.32654,5.18381 -52.82468,6.13454 -114.01185,8.03035 -24.51562,0.75958 -26.66844,0.73509 -31,-0.35269 -2.56015,-0.64292 -5.66187,-1.79117 -6.89271,-2.55166 -4.97426,-3.07341 -8.75548,-12.37112 -8.76882,-21.56185 -0.004,-2.54324 -0.60064,-10.88044 -1.32656,-18.52711 -0.72591,-7.64668 -1.6343,-22.19668 -2.01864,-32.33333 -0.38434,-10.13666 -1.19826,-27.2803 -1.8087,-38.09696 -0.87856,-15.56729 -1.13388,-33.63236 -1.22491,-86.66667 -0.10434,-60.78316 -0.22271,-67.52572 -1.27579,-72.6658 -2.76135,-13.47818 0.0776,-20.43754 12.32798,-30.22097 8.91761,-7.1218 9.65844,-7.32277 29,-7.86722 9.16666,-0.25802 18.48615,-0.79155 20.70996,-1.1856 9.51413,-1.68586 35.8199,-4.15374 50.62337,-4.74924 8.8,-0.35399 23.95,-1.24164 33.66667,-1.97254 20.40918,-1.53522 51.20426,-2.48938 107.66666,-3.336 22,-0.32987 46.75,-0.91653 55,-1.30369 8.25,-0.38716 21.3,-1.00231 29,-1.36702 34.54838,-1.63634 66.0109,-2.09904 115.33334,-1.69613 54.59288,0.44598 94.17779,1.2895 113.5052,2.41873 6.50546,0.38009 27.72813,0.95759 47.16146,1.28335 41.06387,0.68835 69.86847,1.73624 74.15947,2.69788 5.44047,1.21922 9.9386,3.81118 12.757,7.35098 6.49053,8.15174 9.49813,21.28393 13.1186,57.27994 0.57167,5.68333 2.22273,18.50258 3.66913,28.48721 3.998,27.59914 3.9842,27.31618 5.99374,122.84612 0.8064,38.33333 0.8064,38.33333 -0.93654,50.33333 -2.03113,13.98422 -5.15933,24.59346 -8.1924,27.78429 -4.74673,4.99374 -13.2524,7.59842 -22.7238,6.95872 -3.21486,-0.21714 -21.5952,-0.66862 -40.8452,-1.0033 -19.25,-0.33468 -43.55,-1.15787 -54,-1.82931 -14.916,-0.95839 -26.95306,-1.20762 -56,-1.15949 -20.35,0.0337 -40.825,0.28376 -45.5,0.55566 -8.5,0.49436 -8.5,0.49436 -8.5,29.04178 0,28.54743 0,28.54743 71.5,28.87813 82.44907,0.38134 133.38394,1.26015 156.16667,2.69447 26.46453,1.66609 39.764,1.94189 53.33333,1.10598 15.4034,-0.94888 17.35987,-1.37136 17.89227,-3.8637 0.215,-1.00644 0.85453,-3.9299 1.4212,-6.49656 0.5666,-2.56667 1.33167,-9.61667 1.70013,-15.66667 0.36847,-6.05 1.1146,-16.1 1.6582,-22.33333 1.73687,-19.91858 2.32514,-41.59216 2.32667,-85.72751 0,-36.61238 -0.1902,-45.39786 -1.27867,-58.66667 -0.70413,-8.5832 -1.44533,-23.55582 -1.64706,-33.27248 -0.29147,-14.03566 -0.7908,-21.09216 -2.42927,-34.33334 -1.9936,-16.11026 -2.082,-17.96864 -2.64793,-55.66666 -0.6488,-43.21105 -1.2288,-51.12623 -4.6852,-63.93579 -1.7304,-6.41304 -3.21254,-8.10137 -8.456,-9.63266 C 871.206,235.89115 858.7438,234.52717 823,232.62016 c -34.3988,-1.83525 -82.87727,-2.54313 -176.33333,-2.57481 -76.40837,-0.0259 -103.38593,0.38839 -147,2.25744 -31.35299,1.3436 -54.44559,1.73505 -141.33334,2.39578 -74.30462,0.56504 -93.62628,1.00862 -131,3.00744 -10.45,0.5589 -28.3,1.44766 -39.66666,1.97505 -36.71838,1.70364 -62.09444,3.70831 -75.33334,5.95119 -5.13333,0.86968 -10.98333,1.79531 -12.999997,2.05697 -2.698106,0.35007 -4.274073,1.00767 -5.966126,2.48949 -4.236834,3.71038 -7.387307,4.62058 -18.003427,5.20134 -13.202593,0.72226 -13.83899,0.88901 -14.762534,3.86818 -0.473192,1.52642 -0.956537,14.15864 -1.310461,34.24881 -0.30841,17.50671 -0.875005,36.55159 -1.259099,42.32196 -0.987837,14.84058 -0.865841,42.29819 0.258859,58.26154 0.526466,7.47236 1.289503,21.23611 1.695638,30.58611 0.406134,9.35 0.900167,17.6 1.097852,18.33334 0.197684,0.73333 0.610533,31.33333 0.917442,68 0.633022,75.62742 1.228494,88.56265 4.70223,102.14483 2.779986,10.86962 6.107886,15.2254 14.952533,19.57086 8.7322,4.29019 13.474707,5.14485 36.99457,6.66687 40.76521,2.63799 115.50386,3.19385 137.34919,1.02152 z m -59.78133,-83.75252 c 26.72064,-0.81603 42.9899,-2.22835 79.78133,-6.9258 19.04387,-2.43147 31.91391,-3.39581 54,-4.04613 7.15,-0.21054 14.5,-0.53918 16.33333,-0.73032 3.33334,-0.34753 3.33334,-0.34753 3.40711,-4.50189 0.0873,-4.91783 1.23358,-7.45311 5.51255,-12.19271 1.69418,-1.87658 3.59535,-4.16977 4.22481,-5.09598 0.62945,-0.9262 2.71335,-2.46582 4.63089,-3.42138 2.87758,-1.43395 4.42407,-1.73975 8.85554,-1.75109 2.953,-0.008 9.7191,-0.29555 15.03577,-0.64001 5.31667,-0.34445 20.01667,-1.09781 32.66667,-1.67413 26.91184,-1.22607 54.09722,-2.72151 66.33333,-3.64894 14.56911,-1.10426 38.36239,-2.02166 53.22112,-2.05204 7.76172,-0.0159 18.01221,-0.2574 22.77888,-0.53671 4.76667,-0.27932 12.77321,-0.34133 17.79232,-0.13781 8.96717,0.36362 9.16107,0.40402 11.16475,2.32626 3.35389,3.21759 4.7096,7.93911 4.7096,16.40212 0,7.30833 0,7.30833 3.16666,7.30773 1.74167,-3.4e-4 17.76745,-0.31909 35.61286,-0.70834 32.82714,-0.71605 44.89734,-0.43782 88.88714,2.04891 6.23334,0.35237 19.88334,0.67777 30.33334,0.72311 10.45,0.0453 25.0504,0.27469 32.44533,0.50967 13.44527,0.42725 13.44527,0.42725 14.22327,-4.23942 1.68686,-10.11881 1.59733,-25.63312 -0.65587,-113.66666 -0.7066,-27.60791 -1.19313,-33.74337 -4.37067,-55.11775 -1.29853,-8.73524 -3.0998,-22.93225 -4.0028,-31.54892 -1.85506,-17.7021 -3.9242,-31.91916 -4.75053,-32.64108 -0.82367,-0.71962 -40.5404,-2.04796 -61.22207,-2.04759 -9.9,1.8e-4 -30.6,-0.59639 -46,-1.32571 -53.92898,-2.55398 -183.85266,-3.35212 -221,-1.35764 -33.52651,1.80008 -64.35814,2.82282 -102.33333,3.39456 -60.64747,0.91307 -99.80111,2.26791 -106.17387,3.67394 -0.82896,0.1829 -9.67896,0.61807 -19.66667,0.96704 -16.86855,0.5894 -40.05493,2.64671 -56.15946,4.98298 -11.61977,1.68567 -26.69725,2.58948 -29.11836,1.74547 -1.72729,-0.60213 -2.33428,-0.55837 -3.11739,0.22473 -0.81919,0.8192 -0.85098,1.70801 -0.20168,5.63963 0.54559,3.30369 0.77076,23.41906 0.77076,68.85425 0,35.30288 0.29018,68.99509 0.64484,74.87157 0.77526,12.84549 1.87174,36.42986 2.66635,57.35118 0.32031,8.43333 1.12523,20.99827 1.78871,27.92207 1.20634,12.58873 1.20634,12.58873 13.88656,12.14978 6.97411,-0.24142 22.22861,-0.73056 33.89888,-1.08695 z m 39.02035,-13.42323 c -5.2156,-3.02435 -6.67486,-9.3777 -3.35288,-14.59782 2.9051,-4.56503 3.62382,-4.94026 9.48679,-4.95276 5.7846,-0.0123 7.67348,0.8873 10.4604,4.98213 3.10335,4.55976 1.21139,11.75805 -3.83602,14.59485 -3.42762,1.92644 -9.4119,1.91404 -12.75829,-0.0264 z m -1.07781,-31.10955 c -1.19467,-0.63727 -2.93567,-2.28232 -3.86889,-3.65568 -3.45663,-5.08689 -3.62584,-6.41234 -3.62316,-28.38026 0.002,-19.06054 0.0888,-20.55764 1.30151,-22.54662 4.93146,-8.08783 17.63139,-5.98324 19.40837,3.21629 0.30959,1.60279 0.57596,10.50887 0.59193,19.79131 0.0185,10.78652 0.28966,17.36417 0.75125,18.22665 1.058,1.97689 0.88089,6.77404 -0.33705,9.12927 -2.36462,4.57268 -9.55998,6.70692 -14.22396,4.21904 z m 440.50546,-2.72456 c -9.47626,-0.42651 -11.52502,-1.0167 -14.4556,-4.16422 -4.81136,-5.16752 -3.25879,-13.21766 3.16438,-16.40738 2.9261,-1.45308 3.30755,-1.48136 10.00002,-0.74146 4.92513,0.5445 14.359,0.61669 32.2912,0.24708 13.93333,-0.28719 26.6364,-0.49058 28.22906,-0.452 5.46007,0.1323 9.66294,3.75748 11.11627,9.58835 0.97373,3.90681 -3.4218,11.44186 -6.7978,11.65309 -6.32907,0.39602 -56.08267,0.61253 -63.54753,0.27654 z M 527.96658,498.78589 c -4.72283,-2.28733 -6.87441,-10.0631 -4.03517,-14.58302 3.33717,-5.31257 7.49878,-6.1792 29.73526,-6.19216 11.57422,-0.007 20.51373,-0.37034 26.90545,-1.09432 11.12451,-1.26008 13.48813,-0.87572 16.63167,2.70458 2.17084,2.47244 3.17972,6.44858 2.46357,9.7092 -0.63548,2.89332 -4.21788,6.413 -7.35032,7.22164 -9.43547,2.43576 -60.2887,4.20125 -64.35046,2.23408 z M 499,496.93021 c -2.76227,-1.50868 -4.94809,-3.5869 -6.09834,-5.79813 -1.54133,-2.96303 -2.42762,-16.89101 -2.03493,-31.97857 0.32273,-12.39977 0.51122,-14.15806 1.80404,-16.82868 2.76021,-5.70182 8.59636,-7.7951 14.11694,-5.06338 5.6242,2.783 5.57821,2.58172 5.30798,23.22985 -0.23203,17.72921 -0.20299,18.21671 1.22982,20.64513 0.8071,1.36794 1.6177,3.99685 1.80132,5.84202 0.27572,2.7705 0.0615,3.75063 -1.22981,5.6269 -2.51818,3.65892 -4.76677,4.94928 -9.05473,5.19607 -2.65193,0.15263 -4.4619,-0.11727 -5.84229,-0.87121 z m 148,-11.97862 c -3.10537,-1.61508 -4.77147,-3.4687 -6.28948,-6.99742 -1.31167,-3.04908 -1.42201,-4.83109 -1.80174,-29.10108 -0.4045,-25.8531 -0.4045,-25.8531 1.17669,-28.12514 2.69647,-3.87458 4.8648,-5.0613 9.24786,-5.0613 4.34434,0 6.59059,1.20887 9.10324,4.8991 1.38948,2.04067 1.44643,2.89098 1.73734,25.9387 0.19862,15.73646 0.56944,24.67437 1.0919,26.31853 1.06947,3.36551 0.0448,6.96085 -2.75293,9.65952 -3.68019,3.54989 -7.75465,4.42371 -11.51288,2.46909 z m 90.56773,-9.01324 c -4.37613,-1.26775 -8.27973,-8.24239 -7.21526,-12.8918 0.25766,-1.12561 0.66353,-11.79656 0.9018,-23.71323 0.48253,-24.12673 0.6866,-25.28531 4.9146,-27.89835 4.3928,-2.71491 12.04306,-1.4829 15.01893,2.41865 1.7338,2.27309 1.7338,2.27309 1.5604,23.70973 -0.16833,20.8099 -0.67453,29.10518 -1.9816,32.47362 -0.91507,2.35808 -4.1782,5.22067 -6.8124,5.97615 -2.65353,0.76102 -3.53713,0.75067 -6.38647,-0.0748 z m -140.23406,-3.354 c -4.36885,-1.7421 -6.667,-5.63693 -6.667,-11.29903 0,-2.26282 -0.50262,-7.30272 -1.11694,-11.19977 -0.6516,-4.13365 -1.13765,-11.25166 -1.16666,-17.08556 -0.0441,-8.879 0.10144,-10.26157 1.29885,-12.33334 2.92786,-5.06581 11.63685,-7.02817 16.09616,-3.62688 3.52764,2.69066 4.341,5.45092 3.82289,12.97356 -0.46369,6.73242 0.94731,21.69991 2.80082,29.71022 1.36402,5.89491 -0.39072,10.1698 -5.20202,12.67311 -2.05642,1.06996 -7.39867,1.17159 -9.8661,0.18769 z M 403.33545,462.52991 c -4.05148,-0.91016 -6.30648,-2.65292 -7.59296,-5.86815 -2.63338,-6.58148 -0.60233,-12.65511 4.9425,-14.77997 5.25284,-2.01297 9.30244,-1.38579 12.87453,1.99394 2.74467,2.59688 3.77381,4.9583 3.77381,8.65923 0,7.18336 -6.3453,11.71412 -13.99788,9.99495 z m -168.4053,-15.77858 c -3.09506,-1.91498 -4.9306,-5.32828 -4.92766,-9.16336 0.003,-4.16101 1.69124,-6.9616 5.56413,-9.23126 2.98351,-1.74846 2.98351,-1.74846 37.21842,-1.88592 34.23492,-0.13747 34.23492,-0.13747 37.47961,1.5292 4.36184,2.24049 5.90022,5.05234 5.56628,10.17408 -0.21408,3.28345 -0.57576,4.17642 -2.49261,6.15411 -3.42353,3.53219 -5.00511,3.80933 -17.07262,2.99172 -9.67149,-0.65527 -25.05135,-0.54125 -49.93237,0.37018 -8.40064,0.30773 -9.54017,0.21392 -11.40318,-0.93875 z m 87.6789,-20.70102 c -3.1099,-0.97998 -5.18771,-2.7809 -6.61848,-5.73646 -1.32381,-2.73464 -1.3628,-3.30084 -0.6504,-9.44478 0.59973,-5.17212 0.53376,-11.23295 -0.31615,-29.04901 -0.99987,-20.9595 -0.99742,-22.67462 0.0355,-24.85146 4.08051,-8.59903 17.2058,-7.5468 19.53898,1.5664 0.94474,3.69008 2.25436,35.56836 1.97733,48.13165 -0.22625,10.2604 -0.35461,11.19942 -1.90922,13.96592 -2.49209,4.43482 -7.72102,6.78428 -12.05762,5.41774 z m 177.05762,-4.95234 c -2.48661,-1.15377 -4.66579,-3.4819 -5.70783,-6.09798 -1.84279,-4.62637 -3.40953,-45.27103 -1.91915,-49.78691 2.72172,-8.2469 15.09722,-9.35014 19.05398,-1.69862 0.87254,1.68732 1.12285,4.66105 1.27319,15.1262 0.10292,7.1643 0.50618,15.726 0.89613,19.026 1.73438,14.67724 1.07306,19.24579 -3.22937,22.30939 -2.52772,1.79989 -7.69953,2.35959 -10.36695,1.12192 z m 95.91202,-11.0448 c -1.74502,-0.7924 -3.53496,-2.38502 -4.88368,-4.34532 -1.89971,-2.76113 -2.24032,-4.00718 -3.16213,-11.56782 -0.6551,-5.37314 -1.06354,-14.73389 -1.11632,-25.58424 -0.0951,-19.55905 -0.10938,-19.50359 5.76612,-22.45088 3.55865,-1.78511 6.77747,-1.59486 10.41195,0.6154 4.0253,2.44793 4.70742,5.27957 4.72462,19.61301 0.0174,14.49056 0.91957,25.92818 2.40225,30.45504 1.36667,4.17265 0.69107,7.41779 -2.21365,10.63297 -2.09946,2.32385 -5.45746,3.92331 -8.17452,3.89363 -0.55,-0.006 -2.23958,-0.57381 -3.75464,-1.26179 z m 47.66228,-3.6853 c -4.42426,-3.00635 -4.45168,-3.24231 -4.13964,-35.61281 0.30358,-31.49159 0.23792,-30.95864 4.22768,-34.3158 4.87566,-4.10259 11.9191,-2.59314 15.84188,3.39502 1.06176,1.62077 1.15026,4.02898 1.0218,27.80342 -0.17575,32.52679 -0.21098,33.17226 -1.93794,35.50322 -3.7331,5.03874 -10.27749,6.44534 -15.01378,3.22695 z m -239.17908,-1.14184 c -3.30776,-2.27081 -5.88123,-5.79021 -6.81448,-9.31925 -1.20437,-4.5543 0.48362,-8.67612 4.62994,-11.30564 5.45298,-3.45818 11.26831,-2.05294 15.74004,3.8035 3.07212,4.02344 3.59482,6.87901 1.97213,10.77404 -2.70339,6.48907 -10.47525,9.51589 -15.52763,6.04735 z M 735.25007,393.0407 c -4.2656,-2.89854 -5.70894,-8.3897 -3.5582,-13.53714 0.85413,-2.04434 1.01186,-5.90387 0.94526,-23.13776 -0.0799,-20.68416 -0.0799,-20.68416 2.80814,-23.92898 2.5034,-2.81267 3.30453,-3.29075 6.01506,-3.58972 4.3814,-0.48326 6.18294,0.12991 9.57907,3.26039 2.9606,2.72898 2.9606,2.72898 2.9606,25.55308 0,12.55325 -0.30147,24.41363 -0.66987,26.35639 -0.36846,1.94275 -1.4358,4.53646 -2.372,5.76381 -3.71353,4.86875 -11.0882,6.39923 -15.70806,3.25993 z M 226.53493,350.7421 c -3.14648,-0.66484 -4.14992,-1.52583 -5.83491,-5.00654 -2.53459,-5.23577 -1.43311,-10.60184 2.91128,-14.18286 2.44361,-2.01422 2.44361,-2.01422 15.58282,-2.41994 7.22657,-0.22314 18.53921,-0.91744 25.13921,-1.54289 16.43699,-1.55766 41.43506,-1.59654 48.57448,-0.0755 8.5444,1.82031 11.69724,4.47411 12.2588,10.31844 0.54773,5.70031 -2.89304,10.44058 -8.20396,11.30242 -1.24464,0.20198 -5.49541,-0.16458 -9.44615,-0.81459 -6.00968,-0.98874 -9.41584,-1.10977 -20.84983,-0.74082 -7.51667,0.2425 -16.81667,0.73771 -20.66667,1.10042 -3.85,0.36272 -11.65,0.95006 -17.33333,1.3052 -5.68334,0.35515 -12.43334,0.78788 -15,0.96162 -2.56667,0.17374 -5.77595,0.0815 -7.13174,-0.20496 z m 277.89813,-5.71236 c -3.65355,-1.96136 -6.37633,-6.25829 -6.40943,-10.115 -0.0559,-6.51834 3.58802,-10.56129 10.12939,-11.23844 2.29917,-0.238 18.88031,-0.33754 36.84698,-0.22119 31.55127,0.20433 32.74626,0.25831 34.99773,1.58093 6.59816,3.87606 7.26794,13.40205 1.24436,17.69818 -2.24209,1.5991 -2.24209,1.5991 -34.90876,2.03942 -17.96666,0.24217 -34.31666,0.6284 -36.33333,0.85828 -2.67193,0.30457 -4.18219,0.14121 -5.56694,-0.60218 z M 667.4152,332.61088 c -2.62099,-0.55549 -5.10165,-2.27052 -7.04067,-4.86764 -2.00808,-2.68959 -1.91649,-8.65007 0.17803,-11.58664 2.86302,-4.01403 4.62226,-4.50756 15.34577,-4.30508 5.2608,0.0993 12.6108,-0.12356 16.33334,-0.49534 3.7226,-0.37178 12.1102,-0.97598 18.6392,-1.34268 9.72606,-0.54626 12.2686,-0.50053 14.07226,0.25309 8.52514,3.56204 8.83194,15.54869 0.49234,19.23769 -2.4784,1.09632 -5.2892,1.43409 -15.7266,1.88988 -6.98987,0.30524 -15.67647,0.86861 -19.3036,1.25193 -7.12727,0.75323 -19.35834,0.73449 -22.99007,-0.0352 z M 178.33333,197.66431 c 12.46667,-0.55513 30.01667,-1.44785 39,-1.98383 8.98334,-0.53598 26.23334,-1.28476 38.33334,-1.66396 12.1,-0.37919 23.81487,-0.85548 26.03305,-1.05841 4.03305,-0.36896 4.03305,-0.36896 2.88805,-7.93604 -0.62975,-4.1619 -1.63022,-14.26946 -2.22326,-22.46125 -0.59304,-8.19178 -1.26192,-16.36148 -1.48641,-18.15487 -0.40816,-3.26071 -0.40816,-3.26071 -25.14313,-2.85872 -27.8184,0.45211 -44.51204,1.50188 -70.73497,4.44816 -9.9,1.11231 -21.6,2.21189 -26,2.44351 -12.05821,0.63475 -11.28697,-0.11344 -10.73625,10.41542 0.25352,4.84678 1.19788,15.84791 2.0986,24.44695 0.9007,8.59903 1.63765,15.74787 1.63765,15.8863 0,0.13844 0.825,0.0794 1.83333,-0.13112 1.00834,-0.21056 12.03334,-0.83702 24.5,-1.39214 z m 298.91719,-7.01122 c 9.67112,-0.32922 17.76699,-0.78172 17.99083,-1.00556 0.22384,-0.22384 0.52003,-7.7325 0.6582,-16.68592 0.21396,-13.86445 0.10593,-16.33469 -0.72832,-16.65482 -0.53875,-0.20674 -4.09767,-0.0489 -7.90872,0.35083 -12.93787,1.35688 -39.5123,2.71192 -65.26251,3.32774 -14.11667,0.33761 -29.94167,0.82522 -35.16667,1.08357 -9.5,0.46974 -9.5,0.46974 -9.4828,6.53374 0.0167,5.89782 0.86118,16.80238 1.69863,21.93483 0.41405,2.53751 0.41405,2.53751 40.51577,2.12584 22.05596,-0.22642 48.01447,-0.68103 57.68559,-1.01025 z M 718.30027,152.3956 c -2.829,-1.23225 -5.42847,-4.54163 -5.93847,-7.56037 -0.67647,-4.00396 1.7974,-13.88659 8.97047,-35.83523 3.59486,-11.000003 7.6132,-23.450002 8.9296,-27.666669 2.84593,-9.116233 4.13453,-11.403486 7.2602,-12.886693 6.51313,-3.090681 14.30893,0.634033 15.44886,7.381226 0.49647,2.938607 -0.81526,7.547434 -10.95886,38.505466 -3.60427,11 -7.22507,22.95386 -8.04627,26.56413 -1.5796,6.94416 -3.14687,9.63339 -6.6788,11.45982 -2.32307,1.20132 -6.27793,1.21818 -8.98673,0.0383 z m 93.70006,-1.14457 c -5.51813,-2.20039 -8.35153,-9.39305 -5.71133,-14.4986 2.03213,-3.92975 17.2532,-14.79742 43.04433,-30.73323 7.88334,-4.87095 16.88554,-10.617929 20.00494,-12.771069 5.10093,-3.520854 6.0134,-3.9148 9.06806,-3.9148 5.87134,0 10.48627,4.514913 10.47914,10.251839 -0.007,6.11724 -1.78867,7.68086 -25.55214,22.43313 -17.34593,10.76832 -37.6282,24.17413 -38.3562,25.352 -0.25833,0.41804 -1.8426,1.63073 -3.5206,2.69488 -3.19626,2.027 -6.35373,2.42296 -9.4562,1.18585 z"
       id="path5721" />
  </g>
</svg>
