<?xml version="1.0" encoding="UTF-8" standalone="no"?>
<!-- Created with Inkscape (http://www.inkscape.org/) -->

<svg
   version="1.1"
   id="svg5473"
   width="819.33331"
   height="708.66669"
   viewBox="0 0 819.33331 708.66669"
   sodipodi:docname="single_date.svg"
   inkscape:version="1.1.2 (0a00cf5339, 2022-02-04)"
   xmlns:inkscape="http://www.inkscape.org/namespaces/inkscape"
   xmlns:sodipodi="http://sodipodi.sourceforge.net/DTD/sodipodi-0.dtd"
   xmlns="http://www.w3.org/2000/svg"
   xmlns:svg="http://www.w3.org/2000/svg">
  <defs
     id="defs5477" />
  <sodipodi:namedview
     id="namedview5475"
     pagecolor="#505050"
     bordercolor="#eeeeee"
     borderopacity="1"
     inkscape:pageshadow="0"
     inkscape:pageopacity="0"
     inkscape:pagecheckerboard="0"
     showgrid="false"
     inkscape:zoom="1.2304797"
     inkscape:cx="410.00269"
     inkscape:cy="354.73969"
     inkscape:window-width="1886"
     inkscape:window-height="999"
     inkscape:window-x="1935"
     inkscape:window-y="62"
     inkscape:window-maximized="1"
     inkscape:current-layer="g5479" />
  <g
     inkscape:groupmode="layer"
     inkscape:label="Image"
     id="g5479">
    <path
       style="fill:#000000;stroke-width:0.666667"
       d="m 58.588187,655.07963 c -8.887392,-3.17591 -14.296258,-10.81746 -14.212811,-20.07961 0.06479,-7.19208 2.579056,-12.06168 8.747997,-16.94305 7.445665,-5.89163 16.252512,-9.1537 37.048924,-13.72299 C 96.127531,603.02553 104.15,601.24037 108,600.36697 c 34.7378,-7.88054 85.88356,-15.27525 140.66666,-20.33773 33.95659,-3.13791 43.13994,-3.75949 118.66666,-8.03192 39.05,-2.209 84.05,-4.76028 100,-5.66952 15.95,-0.90923 36.95,-2.10298 46.66667,-2.65277 20.07849,-1.13608 88.62405,-3.96209 121.99999,-5.02985 28.97065,-0.92682 131.16246,-1.9247 133.35233,-1.30215 5.67087,1.61214 10.9864,6.29301 13.5234,11.90872 2.0812,4.60661 1.9834,12.6135 -0.2086,17.0816 -2.08773,4.25547 -6.11833,8.28409 -10.2122,10.20717 -4.75887,2.23545 -14.5164,2.67101 -68.78826,3.07061 -48.30833,0.35568 -63.40925,0.73492 -122,3.06386 -48.79699,1.93964 -51.41977,2.0749 -148.66666,7.66639 -15.76667,0.90655 -50.26667,2.85375 -76.66667,4.32712 -57.0844,3.18584 -70.40244,4.08859 -98.99999,6.71064 -64.08829,5.87611 -106.11404,12.12149 -152.33333,22.63799 -21.123089,4.80624 -23.894942,5.62237 -27.492682,8.09479 -1.5543,1.06814 -4.06702,2.37993 -5.583813,2.91509 -3.374247,1.1905 -10.077088,1.21696 -13.335318,0.0526 z M 131.66666,543.9823 c -14.30826,-1.15468 -23.4601,-4.65371 -31.1809,-11.92139 -7.243109,-6.81803 -10.569383,-14.0025 -15.797396,-34.12105 -5.391,-20.74575 -11.066019,-53.74009 -14.426533,-83.87529 -1.75426,-15.73122 -1.75426,-15.73122 -1.287333,-111.93113 0.309533,-63.77259 0.242447,-96.47039 -0.19902,-97.00233 -0.5894,-0.71018 -1.34966,-8.97536 -4.212788,-45.79954 -0.733594,-9.43515 -0.709463,-9.84871 1.000036,-17.13901 4.184952,-17.84704 12.677472,-23.64554 41.301944,-28.20002 6.67443,-1.06198 17.42513,-2.99397 23.89045,-4.29331 6.46532,-1.29935 15.61532,-2.8008 20.33333,-3.33657 11.93259,-1.35503 41.01778,-3.53527 58.91154,-4.41603 8.25,-0.40608 15.20236,-0.93519 15.44969,-1.17581 0.24733,-0.24062 0.17919,-2.687483 -0.15142,-5.437484 -0.33061,-2.75 -0.80148,-10.25 -1.04637,-16.666667 -0.47982,-12.57235 0.43736,-20.158384 3.05606,-25.276707 1.76371,-3.447211 5.58722,-7.135458 9.56709,-9.228616 2.98444,-1.569628 4.23472,-1.817775 9.12495,-1.81106 6.60884,0.0091 10.56404,1.547087 14.75428,5.737329 5.12102,5.121015 6.77691,10.511198 5.7596,18.748394 -0.48846,3.955133 -0.44344,8.72348 0.16052,16.997327 0.97343,13.335574 -0.28889,12.131614 10.99227,10.484134 3.66667,-0.535474 16.41666,-1.876894 28.33333,-2.980934 11.91667,-1.10404 31.11667,-3.046706 42.66667,-4.317033 27.66858,-3.043134 71.82979,-6.282967 102.99999,-7.55646 11.33334,-0.46304 11.33334,-0.46304 11.66667,-19.129708 0.38557,-21.592163 0.57105,-22.341642 6.97825,-28.197457 8.73766,-7.985736 21.75696,-7.187497 29.86546,1.831112 4.85138,5.395898 5.15629,6.978138 5.15629,26.757056 0,17.15319 0,17.15319 52.16666,17.468997 53.97673,0.326766 59.04721,0.56478 72.19643,3.388986 19.08413,4.098914 36.83584,14.044834 45.2937,25.377121 3.13734,4.20358 8.3292,14.57203 10.58007,21.12887 1.91307,5.57295 7.71873,28.44105 9.37113,36.91199 3.21827,16.49873 6.03267,43.72362 7.0296,68 1.14947,27.99167 2.067,43.44479 3.10727,52.33333 2.24933,19.21949 3.6368,37.28814 3.993,52 0.75153,31.03752 -1.31973,96.43252 -3.76393,118.83973 -1.62687,14.91405 -5.44147,23.92597 -13.6406,32.22569 -8.0194,8.11777 -17.438,12.80173 -34.73312,17.27312 -23.77185,6.14584 -45.66091,8.76513 -86.26688,10.32284 -9.71667,0.37275 -25.76667,1.26883 -35.66667,1.9913 -9.89999,0.72246 -29.09999,1.62217 -42.66666,1.99936 -27.89057,0.77542 -36.61682,1.31502 -59.33333,3.66895 -31.36561,3.25018 -40.1026,3.91025 -75.33333,5.69133 -7.7,0.38928 -25.1,1.58716 -38.66667,2.66196 -29.15176,2.30952 -42.29655,3.12768 -59,3.67232 -21.46428,0.69988 -41.01828,2.27432 -58.61286,4.71938 -9.37959,1.30345 -19.6038,2.64429 -22.72047,2.97965 -8.35145,0.89863 -38.53898,1.28614 -47,0.60333 z m 47.66667,-42.93043 c 37.62432,-5.20825 51.15646,-6.4521 80.33333,-7.38409 14.64557,-0.46782 35.98363,-1.81272 58.33333,-3.67666 18.55215,-1.54724 31.63238,-2.38346 52,-3.3244 15.97945,-0.7382 35.88469,-2.35918 61.33333,-4.99465 22.38294,-2.31799 32.12795,-2.9197 59.80803,-3.69291 13.48892,-0.3768 30.6753,-1.11788 38.19197,-1.64683 22.9204,-1.61293 34.89224,-2.28145 53.33333,-2.97817 21.5479,-0.81411 33.79843,-2.20424 53.60522,-6.08285 8.07188,-1.58066 19.8339,-4.95806 23.1392,-6.64429 3.95741,-2.01892 3.62709,0.1165 6.2329,-40.29367 1.38774,-21.52078 1.72688,-92.39234 0.4993,-104.33334 -0.4712,-4.58333 -1.77306,-16.73333 -2.89304,-27 -1.14748,-10.51884 -2.2285,-24.77753 -2.47661,-32.66667 -0.42377,-13.47399 -0.4904,-13.99463 -1.77364,-13.85695 -0.73333,0.0787 -5.98333,0.33154 -11.66667,0.56191 -5.68333,0.23037 -13.72369,0.841 -17.86747,1.35695 -5.67532,0.70664 -16.77775,0.93654 -45,0.93184 -37.49228,-0.006 -70.47279,0.74963 -91.13252,2.0887 -6.05,0.39213 -23.75,0.96836 -39.33333,1.2805 -20.04642,0.40154 -32.42805,0.97425 -42.33334,1.95814 -10.00152,0.99344 -22.42869,1.5613 -43.51168,1.98825 -32.59139,0.66001 -31.25931,0.56335 -51.62002,3.74576 -25.34658,3.96171 -34.53205,4.8528 -57.60568,5.58841 -30.81455,0.98239 -46.63918,2.20227 -69.26261,5.33929 -5.13333,0.71181 -18.78333,1.91064 -30.33333,2.66408 -26.96009,1.7587 -46.7107,3.84197 -47.9243,5.05501 C 111.18406,275.2601 111,304.14416 111,339.22204 c 0,71.52579 -0.31333,65.55824 5.39635,102.77797 1.65933,10.81667 4.06015,24.54954 5.33516,30.51749 2.45364,11.48476 6.74461,27.41018 7.65609,28.41468 1.66344,1.83318 36.9565,1.91776 49.94573,0.11969 z m 16.80308,-18.47779 c -5.9591,-2.28975 -10.57176,-9.42111 -8.91616,-13.78476 0.37338,-0.98412 0.86142,-2.89436 1.08454,-4.24498 0.2842,-1.72042 1.31625,-3.3534 3.44698,-5.45404 5.0549,-4.98349 8.26738,-5.92256 14.78634,-4.3223 6.88742,1.69072 9.058,4.84686 9.1001,13.23202 0.0253,5.032 -0.18028,6.02176 -1.83524,8.83718 -1.29294,2.19954 -2.92629,3.77994 -5.33334,5.16042 -4.14104,2.37494 -7.27176,2.52128 -12.33322,0.57646 z m 96.98707,-10.5528 c -5.48536,-1.06135 -9.30166,-6.21914 -9.38958,-12.69014 -0.073,-5.37554 2.57556,-9.63979 7.55555,-12.16446 4.41879,-2.24017 6.71764,-2.2905 11.04387,-0.24179 6.07362,2.87618 10.30148,9.28305 9.27328,14.05265 -1.91802,8.8973 -8.68369,12.9398 -18.48312,11.04374 z m 103.09232,-3.30357 c -4.69516,-2.22119 -5.91474,-3.74673 -7.33097,-9.17006 -1.78377,-6.83079 0.0103,-11.80702 5.58911,-15.50224 3.627,-2.40243 6.38766,-2.60325 11.11354,-0.80844 4.41622,1.67722 7.32155,4.13229 9.00469,7.60918 2.73264,5.64489 1.26455,12.53014 -3.41936,16.03654 -5.80598,4.34639 -8.85719,4.72073 -14.95701,1.83502 z m 83.90394,-50.46774 c -4.49782,-2.29324 -5.51922,-4.60012 -6.53269,-14.75448 -0.50295,-5.03918 -1.20526,-13.21214 -1.56069,-18.16214 -0.35543,-4.95 -1.00981,-13.5803 -1.45417,-19.17843 -0.94375,-11.8894 -0.53735,-13.5023 4.19036,-16.63066 2.80726,-1.85758 2.80726,-1.85758 32.18901,-1.8409 32.97024,0.0187 31.8312,-0.14014 35.34436,4.92935 1.96368,2.8336 2.20686,4.44488 5.6928,37.72064 0.38412,3.66666 1.14038,8.12802 1.68059,9.91412 1.11096,3.6732 0.80056,5.66349 -1.44036,9.23568 -2.64385,4.21449 -3.86774,4.64701 -15.77832,5.57606 -21.86698,1.70568 -28.9206,2.29374 -34.78398,2.89994 -3.3,0.34118 -6.45,0.63683 -7,0.65701 -0.55,0.0202 -2.65,0.19998 -4.66666,0.39956 -2.69714,0.26691 -4.25198,0.0645 -5.88025,-0.76575 z m 39.54691,-23.14832 c 7.33333,-0.7683 7.33333,-0.7683 7.12298,-4.43497 -0.33892,-5.90766 -2.10431,-21.53689 -2.4745,-21.90709 -0.18683,-0.18682 -7.26346,-0.35915 -15.72584,-0.38296 -15.38616,-0.0433 -15.38616,-0.0433 -15.42112,11.95672 -0.0192,6.6 0.19198,13.01181 0.46936,14.24846 0.50433,2.24847 0.50433,2.24847 9.60006,1.76832 5.00265,-0.26409 12.39573,-0.8259 16.42906,-1.24848 z m -332.99999,20.17568 c -5.28281,-2.395 -7.51619,-5.26253 -8.33109,-10.69661 -0.60742,-4.05063 1.19817,-9.79599 4.16952,-13.26736 2.63944,-3.08357 5.67995,-4.10076 12.4949,-4.1801 5.39226,-0.0628 7.97194,1.01255 11.43365,4.76602 2.71545,2.94431 3.67151,5.93904 2.84744,8.91921 -0.33178,1.19984 -0.92463,3.48372 -1.31746,5.07528 -0.77445,3.13778 -4.9342,8.20633 -8.06261,9.8241 -2.7416,1.41774 -9.64208,1.18804 -13.23435,-0.44054 z m 103.7593,-11.27217 c -5.82882,-2.27675 -7.79938,-5.17291 -8.2248,-12.08817 -0.32783,-5.3289 1.37811,-9.6864 4.81995,-12.31162 4.76272,-3.6327 10.0625,-3.24509 16.71043,1.22217 6.17176,4.14728 7.4734,8.04863 4.88705,14.64779 -3.29703,8.4125 -10.20318,11.65052 -18.19263,8.52983 z m 100.84119,-6.52727 c -4.21563,-2.20228 -6.26703,-4.93044 -6.90467,-9.18254 -0.92446,-6.1647 1.11331,-12.00046 5.43404,-15.56197 3.13345,-2.58285 5.98769,-3.13687 10.781,-2.09261 5.58958,1.21774 8.85573,3.37397 10.95602,7.23289 2.08065,3.82284 2.22467,5.99097 0.70959,10.68215 -1.90302,5.89235 -6.73625,9.47961 -13.98071,10.37656 -2.92066,0.36162 -3.91434,0.15501 -6.99527,-1.45448 z m 214.80247,-14.13755 c -6.60162,-2.40297 -9.01364,-6.16335 -9.04774,-14.10558 -0.02,-4.66169 0.15633,-5.34721 2.05804,-8 3.02755,-4.2233 6.80103,-6.1279 12.25783,-6.18693 3.80783,-0.0412 4.87743,0.23349 7.70844,1.9795 4.43754,2.73682 6.36532,6.28076 6.41765,11.79788 0.0757,7.9808 -2.20452,12.08398 -7.81544,14.06364 -4.93416,1.74087 -7.73633,1.85014 -11.57878,0.45149 z M 185.74131,333.90838 c -8.50388,-1.28087 -13.50101,-11.23734 -9.58023,-19.08796 4.50174,-9.01385 15.58077,-11.60184 22.39363,-5.231 3.88418,3.63218 4.8748,6.72396 4.0654,12.68847 -1.14754,8.45618 -7.74978,13.00552 -16.8788,11.63049 z m 96.59202,-9.52672 c -3.89118,-1.79951 -6.51431,-4.38826 -7.96464,-7.86024 -4.5624,-10.92205 7.8743,-23.39227 18.78349,-18.83412 6.12396,2.55876 9.40461,7.04002 10.00554,13.66725 0.41452,4.57136 -0.59426,7.95731 -3.28314,11.01978 -3.45013,3.92947 -11.41423,4.84085 -17.54125,2.00733 z m 111.18336,-7.02894 c -4.45005,-1.05729 -8.60954,-5.35417 -9.29965,-9.60682 -0.90001,-5.54608 5.37684,-14.44235 10.92421,-15.48304 3.49249,-0.6552 9.55947,0.17382 11.48619,1.56952 4.20324,3.0448 6.63095,11.8367 4.42749,16.03407 -1.30704,2.48977 -5.67128,6.57644 -7.93167,7.4272 -2.11556,0.79625 -6.39312,0.82255 -9.60657,0.0591 z m 107.14996,-4.74206 c -3.67821,-1.66754 -5.75438,-3.54554 -7.34255,-6.64166 -2.76083,-5.38222 -2.23071,-10.79741 1.46957,-15.0118 5.44467,-6.20114 13.94036,-6.46349 20.38516,-0.6295 3.15449,2.85552 3.15449,2.85552 3.38132,8.76517 0.22132,5.76635 0.17282,5.98909 -2,9.18563 -1.22476,1.80179 -3.27215,3.82622 -4.54976,4.49874 -3.0353,1.59775 -7.59988,1.53072 -11.34374,-0.16658 z m 101.66667,-1.53655 c -5.71246,-2.49551 -8.72739,-7.64668 -8.19972,-14.00965 0.24648,-2.97228 0.80327,-4.3012 3.04751,-7.27367 3.99211,-5.28752 6.76819,-6.80916 12.24773,-6.71331 5.70655,0.0998 9.41456,2.04481 12.40448,6.5066 4.56064,6.80578 1.35582,17.07486 -6.59464,21.13088 -2.9734,1.51691 -9.81904,1.70742 -12.90536,0.35915 z m -475.2673,-80.71615 c 5.09702,-0.52588 16.76731,-1.43105 25.93398,-2.01148 9.16666,-0.58043 22.81666,-1.79164 30.33333,-2.69158 32.33333,-3.87111 43.03973,-4.68466 74.66666,-5.67368 23.03328,-0.72029 29.68694,-1.42387 60,-6.34461 15,-2.43496 15,-2.43496 42,-2.74929 21.26289,-0.24753 31.10805,-0.67186 46.33333,-1.99695 13.79543,-1.20065 26.97181,-1.83516 46,-2.21512 14.66667,-0.29286 31.61667,-0.85965 37.66667,-1.25951 19.29984,-1.27559 55.91855,-2.09475 93.36102,-2.08848 27.82771,0.005 38.15376,-0.22067 44,-0.96013 4.20143,-0.53142 11.91623,-1.12628 17.14398,-1.3219 5.22776,-0.19562 10.25276,-0.54334 11.16667,-0.77272 2.00834,-0.50406 2.04517,-1.1417 0.62697,-10.85361 -3.58078,-24.52115 -9.93316,-49.16824 -14.59155,-56.61492 -2.75369,-4.40188 -16.01238,-9.60792 -29.37376,-11.5336 -6.36308,-0.91708 -104.85307,-1.68903 -105.69924,-0.82846 -0.91571,0.93128 0.6624,15.44632 2.14519,19.73096 1.76106,5.08872 1.49378,13.24917 -0.58656,17.90873 -1.93594,4.33615 -5.69888,8.24538 -9.92894,10.31496 -3.26403,1.59694 -4.1526,1.73805 -9.10702,1.44622 -7.46902,-0.43993 -12.64738,-2.46885 -16.41675,-6.43219 -4.10083,-4.31185 -5.40131,-6.66105 -5.40419,-9.76215 -10e-4,-1.47668 -0.59104,-6.87669 -1.31038,-12 -0.71934,-5.12331 -1.51628,-11.83575 -1.77098,-14.91654 -0.46308,-5.60143 -0.46308,-5.60143 -12.1921,-5.17334 -29.70114,1.08403 -71.74277,4.17062 -101.39569,7.4442 -11.55,1.27508 -30.6,3.21253 -42.33334,4.30545 -20.98426,1.95461 -34.82268,3.62558 -35.48144,4.28434 -0.18411,0.18412 -0.007,2.22611 0.39282,4.53776 1.37979,7.97074 2.74455,19.54663 2.74991,23.32481 0.007,4.50249 -3.0614,12.83163 -5.45142,14.80072 -0.84876,0.69928 -3.47586,2.18304 -5.83802,3.29726 -8.0854,3.81385 -18.25344,2.45429 -24.6489,-3.29578 -5.4678,-4.91602 -6.14668,-6.49711 -6.48894,-15.11236 -0.1634,-4.11306 -0.83187,-10.7783 -1.48548,-14.81163 -1.1884,-7.33334 -1.1884,-7.33334 -3.8018,-7.24054 -10.43985,0.3707 -35.37782,1.79364 -45.61339,2.60264 -23.00468,1.81828 -27.64317,2.40079 -47.66666,5.9861 -11,1.9696 -22.55,3.972 -25.66667,4.44978 -5.66667,0.86869 -5.66667,0.86869 -6.08313,3.86869 -0.22906,1.65 -0.14115,3.3463 0.19536,3.76956 0.33652,0.42326 0.43321,1.48131 0.21488,2.35122 -0.21834,0.86992 0.21864,5.0005 0.97106,9.17907 0.75242,4.17857 1.67568,12.57052 2.0517,18.64877 0.37601,6.07826 0.97612,13.05884 1.33356,15.51241 0.35745,2.45357 0.6499,6.08763 0.6499,8.07567 0,4.16651 0.98818,9.9149 2.17836,12.67188 0.77604,1.79765 0.99181,1.88114 3.88767,1.5044 1.68631,-0.21938 7.23631,-0.82914 12.33333,-1.35503 z"
       id="path5501" />
  </g>
</svg>
