<?xml version="1.0" encoding="UTF-8" standalone="no"?>
<!-- Created with Inkscape (http://www.inkscape.org/) -->

<svg
   version="1.1"
   id="svg44"
   width="562"
   height="624"
   viewBox="0 0 562 624"
   sodipodi:docname="squiggle.svg"
   inkscape:version="1.1.2 (0a00cf5339, 2022-02-04)"
   xmlns:inkscape="http://www.inkscape.org/namespaces/inkscape"
   xmlns:sodipodi="http://sodipodi.sourceforge.net/DTD/sodipodi-0.dtd"
   xmlns="http://www.w3.org/2000/svg"
   xmlns:svg="http://www.w3.org/2000/svg">
  <defs
     id="defs48" />
  <sodipodi:namedview
     id="namedview46"
     pagecolor="#505050"
     bordercolor="#eeeeee"
     borderopacity="1"
     inkscape:pageshadow="0"
     inkscape:pageopacity="0"
     inkscape:pagecheckerboard="0"
     showgrid="false"
     inkscape:zoom="1.2676282"
     inkscape:cx="281.23388"
     inkscape:cy="305.689"
     inkscape:window-width="1886"
     inkscape:window-height="999"
     inkscape:window-x="1935"
     inkscape:window-y="62"
     inkscape:window-maximized="1"
     inkscape:current-layer="g50"
     inkscape:snap-center="true" />
  <g
     inkscape:groupmode="layer"
     inkscape:label="Image"
     id="g50">
    <path
       style="fill:#000000;stroke-width:0.698188"
       d="M 100.75701,524.32682 C 82.954452,511.13833 69.153923,490.31702 64.636222,469.83023 62.636448,460.76174 62.309167,455.75656 63.106734,446.43912 64.37933,431.57238 69.21532,420.03156 79.922227,406.31 c 9.521866,-12.20291 17.246183,-17.67506 30.061003,-21.29628 3.4906,-0.98639 6.40724,-1.88893 6.48138,-2.00565 0.0741,-0.11673 -3.26585,0.13367 -7.42224,0.55637 -10.860794,1.10466 -18.959276,0.77467 -26.568604,-1.0826 -6.067612,-1.48098 -7.28581,-2.02117 -13.771202,-6.10677 C 63.05833,372.81929 60.69431,370.94274 57.2647,367.29528 48.644483,358.12753 39.123659,341.114 33.069148,324.05828 20.67893,289.15475 19.688735,257.12557 29.757067,216.92514 34.717666,197.11869 39.111864,186.67141 52.1264,163.74175 60.854013,148.365 76.960413,124.45368 84.69917,115.38471 c 6.009665,-7.04265 32.44484,-31.622136 44.57134,-41.44251 9.29934,-7.530871 23.64808,-14.569493 34.65751,-17.000875 13.91945,-3.074042 26.10584,-2.436152 37.06991,1.940372 6.66701,2.661276 7.89209,3.375771 17.06617,9.953346 7.07238,5.070705 10.89149,8.21467 13.42722,11.053479 13.11361,14.681058 16.45601,27.668568 12.48816,48.525088 -2.96131,15.56575 -8.56425,27.39534 -35.53328,75.02196 -32.14837,56.77323 -40.7642,73.79524 -47.64405,94.12888 -3.69632,10.92461 -8.08266,28.79077 -7.38719,30.08921 0.17079,0.31889 2.5458,-0.93646 5.27779,-2.78966 4.8572,-3.29476 5.1193,-3.59665 11.82794,-13.62264 9.04723,-13.52098 16.08711,-27.48591 22.46737,-44.56831 10.55628,-28.26317 10.16167,-27.49244 30.51271,-59.59762 13.18072,-20.79378 19.41542,-30.12564 22.59713,-33.82344 15.93836,-18.52371 38.97583,-35.10382 60.51135,-43.55013 7.33473,-2.87672 23.96736,-6.03528 32.44959,-6.16224 8.09919,-0.12123 29.5189,1.44657 36.53946,2.67448 7.40652,1.29543 17.50547,4.23145 24.913,7.24287 8.39033,3.41095 38.68302,21.12553 55.96341,32.72632 13.10576,8.79822 19.3628,14.02297 29.87001,24.94207 15.14562,15.73932 28.17162,35.71824 37.03177,56.79829 4.42328,10.52382 12.54455,34.70364 15.40107,45.85423 3.25002,12.68677 4.52092,21.38673 4.81149,32.93747 0.84889,33.74402 -12.32284,65.50646 -34.34137,82.81111 -7.58002,5.95724 -21.46501,12.11506 -32.56931,14.44406 -5.6319,1.18127 -5.6319,1.18127 -10.69447,8.22908 -11.2135,15.61079 -23.29982,27.99228 -35.16506,36.02382 -3.0129,2.03943 -11.36133,6.95896 -18.55206,10.93226 -25.77405,14.24168 -40.23674,19.09138 -69.60822,23.34144 -28.17622,4.07707 -49.80214,4.12562 -90.42773,0.20303 -15.05603,-1.45373 -28.54384,-4.63309 -38.80216,-9.14646 -5.07775,-2.23407 -5.07775,-2.23407 -6.71809,0.64322 -0.90222,1.58249 -4.7045,7.86137 -8.44961,13.95299 -7.53289,12.25267 -10.9996,16.20301 -19.77797,22.53707 -14.06652,10.14975 -31.74045,13.2495 -48.63648,8.53007 -9.00478,-2.51522 -19.94246,-8.11398 -29.08952,-14.89029 z m 36.10346,-20.39017 c 10.04215,3.06199 19.53082,-2.32545 28.06471,-15.93451 4.20611,-6.70771 9.22165,-16.20936 8.99528,-17.04148 -0.0669,-0.24625 -2.70177,-2.4509 -5.85512,-4.89923 -13.33668,-10.35494 -25.88634,-25.81805 -34.19768,-42.13687 -1.35792,-2.6662 -2.7757,-5.03669 -3.1506,-5.26776 -0.65055,-0.40093 -10.70705,2.9017 -13.50992,4.43675 -0.73443,0.40223 -3.78029,3.84625 -6.76856,7.65334 -5.87802,7.48873 -7.44872,10.65207 -8.91301,17.95084 -2.858142,14.24594 3.39074,31.04338 16.18031,43.49389 3.6677,3.57047 14.86747,10.43782 19.15459,11.74503 z m 93.49346,-42.22522 c 4.49028,1.60489 15.07858,3.82351 20.11591,4.21498 1.81611,0.14114 5.63473,0.57319 8.48582,0.9601 8.20587,1.11362 26.56307,2.25471 36.1444,2.24677 23.71408,-0.0197 52.09292,-3.72264 67.1167,-8.75769 15.44664,-5.17677 37.61151,-16.95047 49.27744,-26.17559 3.94672,-3.12099 7.12114,-5.87574 7.05423,-6.12169 -0.0669,-0.24593 -6.45949,-0.84217 -14.20574,-1.32493 -7.74626,-0.48275 -25.78726,-2.3983 -40.09107,-4.25672 -26.24801,-3.41029 -40.29902,-4.89529 -54.529,-5.76302 -4.27497,-0.26067 -18.91693,-1.34206 -32.53766,-2.40304 -30.56075,-2.38058 -43.52545,-3.07892 -43.97656,-2.36879 -0.19048,0.29983 -1.63306,6.20099 -3.20576,13.11367 -1.57267,6.91267 -4.10083,16.75568 -5.61809,21.87338 -1.51726,5.11769 -2.84741,9.70974 -2.95589,10.20457 -0.21504,0.98098 1.80846,2.01436 8.92527,4.558 z m -42.59549,-26.37968 c -0.004,-0.32852 1.39012,-6.01787 3.09869,-12.64301 1.70859,-6.62513 2.85218,-12.20726 2.5413,-12.40474 -0.79848,-0.50723 -24.38598,0.46001 -24.73818,1.01444 -0.47215,0.74326 9.56461,15.24162 13.39277,19.34619 3.78635,4.05977 5.71799,5.64665 5.70542,4.68712 z M 94.518752,347.53016 c 2.766595,0.0526 7.994358,-0.47696 11.617218,-1.17701 6.58707,-1.27279 6.58707,-1.27279 6.97066,-8.46586 0.39167,-7.34422 4.46445,-30.19182 7.28868,-40.88834 3.99985,-15.14897 9.04552,-27.9859 18.82576,-47.89545 10.06715,-20.49361 12.20738,-24.40303 41.06418,-75.0094 19.72546,-34.59269 25.97196,-48.51227 26.99012,-60.14432 0.46893,-5.35731 -0.73177,-8.52127 -4.62109,-12.17587 -3.48128,-3.271276 -15.34892,-10.296331 -19.84307,-11.746099 -6.65302,-2.14623 -15.86779,1.90915 -30.45882,13.404739 -3.66293,2.88585 -8.64449,6.63194 -11.07012,8.32463 -2.42565,1.69271 -6.81512,5.65716 -9.7544,8.80988 -2.93927,3.15273 -6.12391,6.33859 -7.07698,7.07969 -4.06122,3.15803 -8.00922,8.53292 -23.10091,31.4501 -24.44458,37.11979 -29.970874,48.74247 -36.052335,75.82376 -6.395486,28.47966 -5.735841,50.69381 2.241727,75.49137 3.430979,10.66495 7.428232,19.32001 12.632394,27.35228 5.338893,8.24023 7.385444,9.63331 14.346986,9.7659 z m 68.335688,27.01393 c 9.86161,-0.86286 21.11113,-1.21766 32.26354,-1.01743 6.84493,0.12294 8.06095,-0.0662 8.40609,-1.30706 0.22194,-0.7979 1.6298,-4.759 3.1286,-8.80243 2.51589,-6.7874 3.58695,-8.68345 13.95405,-24.70253 17.15024,-26.50028 21.66423,-30.78112 46.56105,-44.15617 25.97939,-13.95665 37.91767,-17.53529 61.34792,-18.38983 25.21047,-0.91947 58.13064,6.08934 82.45551,17.55507 6.47744,3.0532 11.01589,5.76977 23.84936,14.27555 22.80882,15.11726 32.11713,23.65448 41.57135,38.12762 5.62538,8.61169 8.38067,14.7187 10.37604,22.99808 1.24826,5.17935 1.82203,6.5154 2.57402,5.99376 0.53226,-0.36921 3.16295,-4.48669 5.84602,-9.1499 6.96249,-12.10102 9.39667,-20.57673 10.19757,-35.50718 0.77096,-14.37255 -2.11956,-29.2399 -10.33903,-53.17844 -11.32511,-32.98355 -23.1337,-51.62466 -45.82966,-72.34713 -4.20235,-3.83694 -8.16012,-6.53483 -26.01749,-17.73535 -36.73932,-23.04369 -41.56152,-24.87529 -70.06532,-26.61287 -22.14872,-1.3502 -34.52358,2.7366 -56.54705,18.67463 -15.36689,11.1208 -24.77434,22.62203 -43.42725,53.0928 -13.45136,21.97368 -15.08747,25.24519 -22.77323,45.53727 -14.38761,37.9864 -28.73323,62.37567 -43.75517,74.38896 -5.29666,4.23581 -17.28013,11.28523 -26.71792,15.71706 -3.49672,1.642 -6.44257,3.1191 -6.54632,3.28245 -0.23701,0.37309 0.45168,3.59245 0.81834,3.82538 0.14936,0.0949 4.0504,-0.15817 8.66898,-0.56231 z m 105.84761,2.95395 c 12.61791,0.98717 32.47252,2.43946 44.12133,3.22734 23.08259,1.5612 27.15197,1.98165 55.68405,5.75333 22.97477,3.03706 39.75552,4.40664 59.29645,4.83954 18.83644,0.41732 18.29783,0.50824 19.77682,-3.33786 3.83437,-9.9713 3.23724,-14.94324 -2.89608,-24.11311 -4.65988,-6.967 -10.89602,-13.14948 -20.2119,-20.0381 -20.07465,-14.84415 -35.39367,-22.24733 -55.50182,-26.82225 -23.45411,-5.33615 -43.77248,-5.58124 -58.36084,-0.70391 -10.11995,3.38338 -32.18138,14.86752 -39.49889,20.56124 -4.7168,3.6701 -8.32836,8.24703 -16.5904,21.02491 -11.1465,17.23897 -11.1554,17.25483 -9.8544,17.55859 0.60168,0.14049 11.41775,1.06313 24.03568,2.05028 z"
       id="path170" />
  </g>
</svg>
