<?xml version="1.0" encoding="UTF-8" standalone="no"?>
<!-- Created with Inkscape (http://www.inkscape.org/) -->

<svg
   version="1.1"
   id="svg164"
   width="460"
   height="386.66666"
   viewBox="0 0 460 386.66666"
   sodipodi:docname="undo.svg"
   inkscape:version="1.1.2 (0a00cf5339, 2022-02-04)"
   xmlns:inkscape="http://www.inkscape.org/namespaces/inkscape"
   xmlns:sodipodi="http://sodipodi.sourceforge.net/DTD/sodipodi-0.dtd"
   xmlns="http://www.w3.org/2000/svg"
   xmlns:svg="http://www.w3.org/2000/svg">
  <defs
     id="defs168" />
  <sodipodi:namedview
     id="namedview166"
     pagecolor="#505050"
     bordercolor="#eeeeee"
     borderopacity="1"
     inkscape:pageshadow="0"
     inkscape:pageopacity="0"
     inkscape:pagecheckerboard="0"
     showgrid="false"
     inkscape:zoom="2.2551725"
     inkscape:cx="229.9159"
     inkscape:cy="193.55504"
     inkscape:window-width="896"
     inkscape:window-height="999"
     inkscape:window-x="2925"
     inkscape:window-y="62"
     inkscape:window-maximized="1"
     inkscape:current-layer="g170" />
  <g
     inkscape:groupmode="layer"
     inkscape:label="Image"
     id="g170">
    <path
       style="fill:#000000;stroke-width:0.666667"
       d="m 35.439091,348.69704 c -4.432088,-1.10139 -9.542619,-8.34648 -8.554027,-12.12687 0.211379,-0.80831 -0.04889,-4.94227 -0.578377,-9.18658 -1.129023,-9.05014 -1.249547,-18.69568 -0.27735,-22.19623 0.819968,-2.95241 3.405227,-6.19406 6.016967,-7.54465 4.639787,-2.39932 11.9349,-0.32122 14.726009,4.19489 1.20654,1.95222 1.386878,3.41095 1.486664,12.02539 0.06246,5.39202 0.375448,10.22398 0.695532,10.73769 0.478283,0.76761 2.494023,0.85808 11.313731,0.50779 5.902468,-0.23442 13.000993,-0.7153 15.774493,-1.06861 7.69734,-0.98054 34.221407,-3.2509 47.290597,-4.04789 6.41667,-0.3913 19.74134,-1.45422 29.61039,-2.36204 21.85841,-2.01068 40.59385,-2.92918 60.14519,-2.94861 8.11556,-0.008 22.36556,-0.45248 31.66666,-0.9876 9.3011,-0.53511 28.97121,-1.29979 43.71134,-1.69929 14.74014,-0.3995 30.19014,-1.00679 34.33334,-1.34955 4.1432,-0.34275 13.83308,-0.63094 21.53308,-0.64041 13.92259,-0.0171 39.64646,-1.09538 40.2377,-1.68661 0.1703,-0.17031 -0.0392,-1.8865 -0.46553,-3.81376 -2.1362,-9.65639 6.60198,-17.35744 15.41591,-13.58621 4.00916,1.7154 5.57879,4.1891 7.45494,11.74877 0.95548,3.85 2.32668,8.40561 3.04711,10.12359 3.13912,7.4857 -0.17481,15.30536 -7.28039,17.17908 -3.90266,1.02912 -37.78703,2.7092 -54.74307,2.71431 -8.61667,0.003 -19.11667,0.29209 -23.33333,0.64333 C 320.45,333.6782 306.2,334.26713 293,334.63571 c -13.2,0.36857 -34.2,1.12838 -46.66667,1.68847 -12.46666,0.56009 -34.21666,1.31105 -48.33333,1.66882 -17.46018,0.4425 -31.31529,1.18057 -43.33333,2.3084 -9.71667,0.91185 -22.76667,1.97777 -29,2.3687 -15.42366,0.96731 -33.437263,2.4711 -44.63429,3.72611 -5.11552,0.57337 -15.465521,1.33256 -22.999998,1.68707 -7.534477,0.35452 -15.199049,0.7622 -17.032382,0.90595 -1.833333,0.14375 -4.335743,0.0123 -5.560909,-0.29219 z M 411.97898,258.0393 c -2.80711,-0.85286 -4.64601,-2.25236 -6.18351,-4.70597 -1.34631,-2.1485 -1.46548,-3.20471 -1.5044,-13.33333 -0.0463,-12.06777 -0.91065,-17.42508 -5.37763,-33.33334 -3.68884,-13.13706 -7.70593,-22.62772 -13.37744,-31.60519 -9.73362,-15.4074 -14.29847,-21.8144 -18.40543,-25.83299 -7.99226,-7.82028 -11.51434,-9.61686 -33.25702,-16.96412 -16.56526,-5.5977 -16.56526,-5.5977 -24.30032,-5.5977 -14.80289,0 -39.7797,2.87474 -51.7746,5.95908 -12.72888,3.27306 -30.4814,12.04235 -33.9715,16.78105 -1.28162,1.74013 -1.28162,1.74013 3.70411,10.33333 2.74215,4.72627 8.16881,14.38743 12.05923,21.46926 3.89043,7.08182 9.4755,16.08182 12.41127,20 7.27935,9.71525 8.82552,15.02302 5.94297,20.40124 -1.00796,1.88062 -1.27168,3.21429 -0.962,4.86498 0.76698,4.08836 -2.10688,10.0134 -5.78294,11.92271 -2.50646,1.30183 -6.3002,1.16691 -11.19977,-0.39831 -2.29553,-0.73334 -4.68182,-1.33334 -5.30286,-1.33334 -0.62103,0 -5.90695,-1.17365 -11.74648,-2.60812 -30.44649,-7.4791 -42.55565,-9.18192 -71.61733,-10.07104 -35.8337,-1.0963 -57.961523,-2.62687 -68.666663,-4.74965 -5.09352,-1.01002 -9.552747,-3.39841 -10.608454,-5.68195 -1.441726,-3.11852 -1.012746,-14.79179 0.70002,-19.04868 2.466927,-6.13128 11.181394,-38.29035 18.20278,-67.17389 2.36206,-9.71667 5.80754,-22.49089 7.656634,-28.387165 4.317783,-13.768286 8.941413,-32.044346 10.361363,-40.955889 3.73614,-23.447751 5.86938,-29.714166 11.84656,-34.799316 4.66948,-3.972601 5.84509,-4.524294 9.64092,-4.524294 3.33976,0 8.76208,2.311769 9.5953,4.090899 0.23416,0.500006 1.24602,2.709101 2.24856,4.909101 2.82458,6.198309 10.09262,18.020977 15.3026,24.892163 9.71188,12.808553 13.25286,17.964056 17.8079,25.927516 2.5735,4.499174 4.93954,8.18032 5.25785,8.18032 0.67655,0 6.81276,-5.118466 16.65463,-13.892306 12.43459,-11.085189 19.76482,-15.336498 45.33334,-26.291928 8.84768,-3.791 14.6003,-5.745212 23.80786,-8.087728 20.0105,-5.090916 22.4199,-5.344272 50.19214,-5.277862 27.82783,0.06654 30.34864,0.361843 45.66666,5.34962 24.259,7.899092 35.0386,14.701235 47,29.657918 6.25191,7.817466 20.63794,30.707113 24.22363,38.542281 5.3828,11.76207 8.35533,23.42825 9.42757,37 0.23175,2.93334 1.0396,10.43334 1.79522,16.66667 1.08036,8.91214 1.28098,13.25331 0.93908,20.32049 -0.87894,18.16826 -3.57387,33.89664 -8.6264,50.34618 -4.82448,15.7071 -6.44256,19.37765 -9.19979,20.86943 -1.14929,0.62181 -3.06103,1.95655 -4.24831,2.9661 -3.92711,3.33921 -7.75728,4.39113 -11.66535,3.20377 z M 228.19787,206.86191 c -1.81528,-2.85739 -4.74746,-7.89525 -6.51594,-11.19525 -7.8361,-14.6222 -14.65522,-26.1802 -16.71644,-28.33333 -2.70644,-2.82714 -4.2907,-6.42338 -4.32245,-9.81192 -0.013,-1.38678 -0.45236,-3.27141 -0.97637,-4.18808 -0.52402,-0.91667 -0.96339,-3.19023 -0.97638,-5.05237 -0.0275,-3.94041 1.89075,-7.28557 7.89962,-13.77587 6.6124,-7.14218 14.55917,-12.50353 24.84296,-16.76051 6.26687,-2.59416 19.8503,-7.07953 26.2338,-8.66262 11.18451,-2.77372 39.05344,-5.29988 54.66666,-4.95521 11.33334,0.25019 11.33334,0.25019 28.23184,6.06019 25.3169,8.70439 31.54322,11.97938 42.00496,22.09427 6.56279,6.34521 8.62386,9.13961 19.46103,26.38545 9.38236,14.93072 11.37213,18.96558 15.36967,31.16667 1.59178,4.85833 3.08912,8.83333 3.32744,8.83333 0.57982,0 1.11115,-4.34656 1.98304,-16.22247 0.60463,-8.23558 0.5515,-11.18961 -0.31776,-17.66667 -0.57408,-4.27764 -1.50638,-12.6979 -2.07178,-18.71169 C 419.14218,133.51914 418.78388,131.66046 416.0536,123.925 411.47595,110.95554 396.12429,86.816545 386,76.668625 c -5.34132,-5.353786 -7.27085,-6.803786 -12.31876,-9.257279 -7.63218,-3.709559 -25.94377,-9.836572 -32.01457,-10.711993 -6.18494,-0.89188 -43.18045,-0.888803 -50.35082,0.0042 -13.59143,1.692661 -30.13482,6.336259 -43.64918,12.251978 -17.38485,7.609966 -24.70353,11.952186 -35.10352,20.827146 -2.0736,1.769533 -6.4236,5.48246 -9.66666,8.250947 -12.60732,10.762396 -19.88634,15.299706 -24.54473,15.299706 -1.34982,0 -4.52823,-1.01482 -7.30416,-2.33211 -4.85185,-2.30241 -6.75427,-4.25965 -8.02166,-8.25283 -0.96939,-3.054265 -12.13707,-21.418211 -16.62059,-27.330611 -2.60628,-3.436894 -6.63203,-8.836891 -8.94612,-12.000002 -2.3141,-3.163111 -4.4891,-5.851111 -4.83334,-5.973333 C 132.28165,57.322221 132,57.992446 132,58.933832 c 0,4.752988 -5.8792,28.794966 -11.428,46.732828 -1.81476,5.86667 -5.24009,18.61667 -7.61184,28.33334 -5.10662,20.92099 -6.92777,27.9394 -12.54159,48.33333 -4.220797,15.33333 -4.220797,15.33333 -2.67915,15.76869 2.83957,0.80188 21.69013,1.90364 49.92725,2.9181 28.2629,1.01539 32.98866,1.35349 45.63175,3.26464 6.1824,0.93454 30.43435,6.10806 35.70158,7.61598 1.1,0.31492 2.11214,0.47894 2.24919,0.3645 0.13706,-0.11444 -1.23603,-2.54594 -3.05132,-5.40333 z"
       id="path378" />
  </g>
</svg>
